<svg xmlns="http://www.w3.org/2000/svg" viewBox="0 0 800 500">
  <defs><linearGradient id="mbg" x1="0" y1="0" x2="0" y2="1"><stop offset="0%" stop-color="#87CEEB"/><stop offset="55%" stop-color="#E8F5E9"/><stop offset="100%" stop-color="#C8E6C9"/></linearGradient></defs>
  <rect width="800" height="500" fill="url(#mbg)" rx="20"/>
  <circle cx="650" cy="60" r="50" fill="#FFF176"/><circle cx="640" cy="50" r="7" fill="#FFD54F"/><circle cx="670" cy="55" r="5" fill="#FFD54F"/>
  <rect x="0" y="380" width="800" height="120" fill="#81C784"/>
  <rect x="0" y="370" width="800" height="18" fill="#A5D6A7"/>
  <rect x="0" y="400" width="800" height="40" fill="#BCAAA4"/>
  <rect x="50" y="417" width="40" height="6" fill="#FFD54F"/><rect x="150" y="417" width="40" height="6" fill="#FFD54F"/><rect x="350" y="417" width="40" height="6" fill="#FFD54F"/><rect x="550" y="417" width="40" height="6" fill="#FFD54F"/>
  <!-- School --><rect x="80" y="240" width="100" height="140" fill="#FFCC80"/><rect x="90" y="260" width="30" height="30" rx="3" fill="#64B5F6"/><rect x="140" y="260" width="30" height="30" rx="3" fill="#64B5F6"/><rect x="120" y="320" width="20" height="60" fill="#795548"/><text x="130" y="225" text-anchor="middle" font-family="sans-serif" font-size="10" fill="#4E342E">Paaralan</text>
  <!-- Church --><rect x="280" y="220" width="80" height="160" fill="#EFEBE9"/><polygon points="290,220 320,170 350,220" fill="#BDBDBD"/><circle cx="320" cy="185" r="8" fill="#FFF176"/><rect x="310" y="320" width="20" height="60" fill="#795548"/><text x="320" y="210" text-anchor="middle" font-family="sans-serif" font-size="10" fill="#4E342E">Simbahan</text>
  <!-- House --><rect x="440" y="270" width="70" height="110" fill="#FFE082"/><polygon points="440,270 475,230 510,270" fill="#FF7043"/><rect x="465" y="310" width="18" height="70" fill="#795548"/><rect x="450" y="290" width="15" height="15" fill="#64B5F6"/>
  <!-- Store --><rect x="570" y="280" width="80" height="100" fill="#CE93D8"/><rect x="580" y="290" width="25" height="20" fill="#64B5F6"/><rect x="615" y="290" width="25" height="20" fill="#64B5F6"/><rect x="600" y="340" width="20" height="40" fill="#795548"/><text x="610" y="270" text-anchor="middle" font-family="sans-serif" font-size="9" fill="#4E342E">Tindahan</text>
  <!-- Trees --><rect x="210" y="330" width="10" height="50" fill="#795548"/><circle cx="215" cy="320" r="25" fill="#66BB6A"/><rect x="530" y="340" width="10" height="40" fill="#795548"/><circle cx="535" cy="330" r="22" fill="#43A047"/>
  <!-- Flag --><rect x="20" y="90" width="3" height="100" fill="#795548"/><rect x="23" y="90" width="45" height="25" fill="#1565C0"/><rect x="23" y="115" width="45" height="25" fill="#C62828"/><polygon points="46,100 55,103 46,105" fill="#FFD600"/>
  <rect x="200" y="130" width="400" height="45" rx="12" fill="#4E342E" opacity="0.85"/><text x="400" y="159" text-anchor="middle" font-family="sans-serif" font-size="18" font-weight="bold" fill="white">🏘️ Ang Ating Komunidad</text>
  <text x="400" y="475" text-anchor="middle" font-family="sans-serif" font-size="14" font-weight="bold" fill="#1B5E20">Kilalanin ang mga lugar sa iyong komunidad!</text>
</svg>