<svg xmlns="http://www.w3.org/2000/svg" viewBox="0 0 1280 800" width="1280" height="800">
<defs>
  <linearGradient id="sky" x1="0" y1="0" x2="0" y2="1"><stop offset="0%" stop-color="#A9E0F5"></stop><stop offset="55%" stop-color="#C9ECF8"></stop><stop offset="100%" stop-color="#EAF7E9"></stop></linearGradient>
  <radialGradient id="sun" cx="50%" cy="50%" r="50%"><stop offset="0%" stop-color="#FFF3C4"></stop><stop offset="60%" stop-color="#FFE59A"></stop><stop offset="100%" stop-color="#FFE59A" stop-opacity="0"></stop></radialGradient>
  <linearGradient id="hillA" x1="0" y1="0" x2="0" y2="1"><stop offset="0%" stop-color="#9ED277"></stop><stop offset="100%" stop-color="#82C05C"></stop></linearGradient>
  <linearGradient id="hillB" x1="0" y1="0" x2="0" y2="1"><stop offset="0%" stop-color="#8ECB63"></stop><stop offset="100%" stop-color="#6FB047"></stop></linearGradient>
  <linearGradient id="lawn" x1="0" y1="0" x2="0" y2="1"><stop offset="0%" stop-color="#84C64f"></stop><stop offset="100%" stop-color="#6DB53F"></stop></linearGradient>
  <linearGradient id="pathG" x1="0" y1="0" x2="0" y2="1"><stop offset="0%" stop-color="#F0E2C0"></stop><stop offset="100%" stop-color="#E4D0A2"></stop></linearGradient>
  <radialGradient id="pond" cx="40%" cy="35%" r="70%"><stop offset="0%" stop-color="#A7E0EE"></stop><stop offset="100%" stop-color="#6FC1DB"></stop></radialGradient>
</defs>


<rect width="1280" height="800" fill="url(#sky)"></rect>
<circle cx="200" cy="130" r="120" fill="url(#sun)"></circle><circle cx="200" cy="130" r="52" fill="#FFEFB0"></circle>
<g transform="translate(430,120) scale(1.05)" fill="#ffffff"><ellipse cx="0" cy="0" rx="46" ry="26"></ellipse><ellipse cx="38" cy="6" rx="34" ry="22"></ellipse><ellipse cx="-38" cy="8" rx="30" ry="18"></ellipse><ellipse cx="8" cy="-14" rx="30" ry="20"></ellipse></g><g transform="translate(950,90) scale(1.25)" fill="#ffffff"><ellipse cx="0" cy="0" rx="46" ry="26"></ellipse><ellipse cx="38" cy="6" rx="34" ry="22"></ellipse><ellipse cx="-38" cy="8" rx="30" ry="18"></ellipse><ellipse cx="8" cy="-14" rx="30" ry="20"></ellipse></g><g transform="translate(1130,190) scale(0.85)" fill="#ffffff"><ellipse cx="0" cy="0" rx="46" ry="26"></ellipse><ellipse cx="38" cy="6" rx="34" ry="22"></ellipse><ellipse cx="-38" cy="8" rx="30" ry="18"></ellipse><ellipse cx="8" cy="-14" rx="30" ry="20"></ellipse></g><g transform="translate(690,205) scale(0.7)" fill="#ffffff"><ellipse cx="0" cy="0" rx="46" ry="26"></ellipse><ellipse cx="38" cy="6" rx="34" ry="22"></ellipse><ellipse cx="-38" cy="8" rx="30" ry="18"></ellipse><ellipse cx="8" cy="-14" rx="30" ry="20"></ellipse></g>
<path d="M560 120 q6 -7 12 0 q6 -7 12 0" fill="none" stroke="#3d5560" stroke-width="2.4" stroke-linecap="round"></path><path d="M620 140 q6 -7 12 0 q6 -7 12 0" fill="none" stroke="#3d5560" stroke-width="2.4" stroke-linecap="round"></path><path d="M1010 230 q6 -7 12 0 q6 -7 12 0" fill="none" stroke="#3d5560" stroke-width="2.4" stroke-linecap="round"></path>


<path d="M0 430 L150 300 L280 400 L430 270 L560 400 L700 300 L860 410 L1010 290 L1160 400 L1280 320 L1280 470 L0 470 Z" fill="#AEC4E4"></path>
<path d="M120 470 L300 330 L470 460 L640 340 L820 470 L1000 350 L1180 470 Z" fill="#96AFD6"></path>
<path d="M430 270 L470 300 L410 320 Z M700 300 L740 330 L670 345 Z M1010 290 L1050 322 L980 336 Z" fill="#EAF1FA"></path>


<g><circle cx="20" cy="445" r="34" fill="#5a9c44"></circle><circle cx="80" cy="451" r="38" fill="#4f8c3d"></circle><circle cx="140" cy="457" r="42" fill="#5a9c44"></circle><circle cx="200" cy="445" r="46" fill="#4f8c3d"></circle><circle cx="260" cy="451" r="34" fill="#5a9c44"></circle><circle cx="320" cy="457" r="38" fill="#4f8c3d"></circle><circle cx="380" cy="445" r="42" fill="#5a9c44"></circle><circle cx="440" cy="451" r="46" fill="#4f8c3d"></circle><circle cx="500" cy="457" r="34" fill="#5a9c44"></circle><circle cx="560" cy="445" r="38" fill="#4f8c3d"></circle><circle cx="620" cy="451" r="42" fill="#5a9c44"></circle><circle cx="680" cy="457" r="46" fill="#4f8c3d"></circle><circle cx="740" cy="445" r="34" fill="#5a9c44"></circle><circle cx="800" cy="451" r="38" fill="#4f8c3d"></circle><circle cx="860" cy="457" r="42" fill="#5a9c44"></circle><circle cx="920" cy="445" r="46" fill="#4f8c3d"></circle><circle cx="980" cy="451" r="34" fill="#5a9c44"></circle><circle cx="1040" cy="457" r="38" fill="#4f8c3d"></circle><circle cx="1100" cy="445" r="42" fill="#5a9c44"></circle><circle cx="1160" cy="451" r="46" fill="#4f8c3d"></circle><circle cx="1220" cy="457" r="34" fill="#5a9c44"></circle><circle cx="1280" cy="445" r="38" fill="#4f8c3d"></circle></g>


<path d="M0 520 Q320 430 640 500 Q960 560 1280 470 L1280 800 L0 800 Z" fill="url(#hillA)"></path>
<path d="M0 600 Q360 520 760 585 Q1040 630 1280 560 L1280 800 L0 800 Z" fill="url(#hillB)"></path>


<path d="M -40 810 C 260 700, 300 660, 640 655 C 980 650, 1060 610, 1340 600 L 1340 560 C 1060 570, 980 610, 640 615 C 300 620, 240 660, -40 760 Z" fill="url(#pathG)"></path>
<g fill="#d8bf88" opacity=".7"><ellipse cx="40" cy="700" rx="30" ry="12"></ellipse><ellipse cx="160" cy="691" rx="30" ry="12"></ellipse><ellipse cx="280" cy="682" rx="30" ry="12"></ellipse><ellipse cx="400" cy="673" rx="30" ry="12"></ellipse><ellipse cx="520" cy="664" rx="30" ry="12"></ellipse><ellipse cx="640" cy="655" rx="30" ry="12"></ellipse><ellipse cx="760" cy="646" rx="30" ry="12"></ellipse><ellipse cx="880" cy="637" rx="30" ry="12"></ellipse><ellipse cx="1000" cy="628" rx="30" ry="12"></ellipse><ellipse cx="1120" cy="619" rx="30" ry="12"></ellipse><ellipse cx="1240" cy="610" rx="30" ry="12"></ellipse></g>


<path d="M0 660 Q320 610 640 645 Q960 675 1280 630 L1280 800 L0 800 Z" fill="url(#lawn)"></path>


<ellipse cx="150" cy="760" rx="180" ry="60" fill="url(#pond)"></ellipse>
<ellipse cx="110" cy="742" rx="70" ry="18" fill="#c4ecf5" opacity=".6"></ellipse>
<g fill="#5aa63f"><ellipse cx="210" cy="748" rx="20" ry="9"></ellipse><ellipse cx="70" cy="775" rx="18" ry="8"></ellipse></g>
<circle cx="212" cy="744" r="4" fill="#F47C6B"></circle>


<g transform="translate(70,560) scale(1.1)"><rect x="-9" y="-6" width="18" height="52" rx="7" fill="#8a5a34"></rect><circle cx="0" cy="-40" r="42" fill="#5ea63f"></circle><circle cx="-30" cy="-22" r="30" fill="#69b449"></circle><circle cx="30" cy="-22" r="30" fill="#69b449"></circle><circle cx="0" cy="-20" r="30" fill="#57993a"></circle><circle cx="-8" cy="-48" r="20" fill="#7cc255" opacity=".7"></circle></g><g transform="translate(1200,600) scale(1.25)"><rect x="-9" y="-6" width="18" height="52" rx="7" fill="#8a5a34"></rect><circle cx="0" cy="-40" r="42" fill="#5ea63f"></circle><circle cx="-30" cy="-22" r="30" fill="#69b449"></circle><circle cx="30" cy="-22" r="30" fill="#69b449"></circle><circle cx="0" cy="-20" r="30" fill="#57993a"></circle><circle cx="-8" cy="-48" r="20" fill="#7cc255" opacity=".7"></circle></g><g transform="translate(1130,540) scale(0.9)"><rect x="-9" y="-6" width="18" height="52" rx="7" fill="#8a5a34"></rect><circle cx="0" cy="-40" r="42" fill="#5ea63f"></circle><circle cx="-30" cy="-22" r="30" fill="#69b449"></circle><circle cx="30" cy="-22" r="30" fill="#69b449"></circle><circle cx="0" cy="-20" r="30" fill="#57993a"></circle><circle cx="-8" cy="-48" r="20" fill="#7cc255" opacity=".7"></circle></g>
<g transform="translate(360,690) scale(1.05)"><ellipse cx="0" cy="4" rx="46" ry="24" fill="#4f8c3d"></ellipse><circle cx="-22" cy="-6" r="22" fill="#63ac47"></circle><circle cx="20" cy="-8" r="26" fill="#63ac47"></circle><circle cx="0" cy="-18" r="26" fill="#63ac47"></circle><circle cx="0" cy="-14" r="20" fill="#4f8c3d" opacity=".35"></circle></g><g transform="translate(1000,700) scale(1.15)"><ellipse cx="0" cy="4" rx="46" ry="24" fill="#4f8c3d"></ellipse><circle cx="-22" cy="-6" r="22" fill="#63ac47"></circle><circle cx="20" cy="-8" r="26" fill="#63ac47"></circle><circle cx="0" cy="-18" r="26" fill="#63ac47"></circle><circle cx="0" cy="-14" r="20" fill="#4f8c3d" opacity=".35"></circle></g><g transform="translate(560,720) scale(0.8)"><ellipse cx="0" cy="4" rx="46" ry="24" fill="#559a3e"></ellipse><circle cx="-22" cy="-6" r="22" fill="#6cb84f"></circle><circle cx="20" cy="-8" r="26" fill="#6cb84f"></circle><circle cx="0" cy="-18" r="26" fill="#6cb84f"></circle><circle cx="0" cy="-14" r="20" fill="#559a3e" opacity=".35"></circle></g><g transform="translate(800,715) scale(0.9)"><ellipse cx="0" cy="4" rx="46" ry="24" fill="#559a3e"></ellipse><circle cx="-22" cy="-6" r="22" fill="#6cb84f"></circle><circle cx="20" cy="-8" r="26" fill="#6cb84f"></circle><circle cx="0" cy="-18" r="26" fill="#6cb84f"></circle><circle cx="0" cy="-14" r="20" fill="#559a3e" opacity=".35"></circle></g>
<g transform="translate(270,745)"><line x1="0" y1="0" x2="0" y2="12" stroke="#4d8a2c" stroke-width="2"></line><g fill="#F47C6B"><circle cx="0" cy="-4" r="4"></circle><circle cx="-4" cy="0" r="4"></circle><circle cx="4" cy="0" r="4"></circle><circle cx="0" cy="4" r="4"></circle></g><circle cx="0" cy="0" r="2.4" fill="#F5B82E"></circle></g><g transform="translate(285,755)"><line x1="0" y1="0" x2="0" y2="12" stroke="#4d8a2c" stroke-width="2"></line><g fill="#F5B82E"><circle cx="0" cy="-4" r="4"></circle><circle cx="-4" cy="0" r="4"></circle><circle cx="4" cy="0" r="4"></circle><circle cx="0" cy="4" r="4"></circle></g><circle cx="0" cy="0" r="2.4" fill="#F5B82E"></circle></g><g transform="translate(300,745)"><line x1="0" y1="0" x2="0" y2="12" stroke="#4d8a2c" stroke-width="2"></line><g fill="#fff"><circle cx="0" cy="-4" r="4"></circle><circle cx="-4" cy="0" r="4"></circle><circle cx="4" cy="0" r="4"></circle><circle cx="0" cy="4" r="4"></circle></g><circle cx="0" cy="0" r="2.4" fill="#F5B82E"></circle></g><g transform="translate(315,755)"><line x1="0" y1="0" x2="0" y2="12" stroke="#4d8a2c" stroke-width="2"></line><g fill="#7653B5"><circle cx="0" cy="-4" r="4"></circle><circle cx="-4" cy="0" r="4"></circle><circle cx="4" cy="0" r="4"></circle><circle cx="0" cy="4" r="4"></circle></g><circle cx="0" cy="0" r="2.4" fill="#F5B82E"></circle></g><g transform="translate(330,745)"><line x1="0" y1="0" x2="0" y2="12" stroke="#4d8a2c" stroke-width="2"></line><g fill="#F47C6B"><circle cx="0" cy="-4" r="4"></circle><circle cx="-4" cy="0" r="4"></circle><circle cx="4" cy="0" r="4"></circle><circle cx="0" cy="4" r="4"></circle></g><circle cx="0" cy="0" r="2.4" fill="#F5B82E"></circle></g><g transform="translate(660,760)"><line x1="0" y1="0" x2="0" y2="12" stroke="#4d8a2c" stroke-width="2"></line><g fill="#7653B5"><circle cx="0" cy="-4" r="4"></circle><circle cx="-4" cy="0" r="4"></circle><circle cx="4" cy="0" r="4"></circle><circle cx="0" cy="4" r="4"></circle></g><circle cx="0" cy="0" r="2.4" fill="#F5B82E"></circle></g><g transform="translate(675,770)"><line x1="0" y1="0" x2="0" y2="12" stroke="#4d8a2c" stroke-width="2"></line><g fill="#F5B82E"><circle cx="0" cy="-4" r="4"></circle><circle cx="-4" cy="0" r="4"></circle><circle cx="4" cy="0" r="4"></circle><circle cx="0" cy="4" r="4"></circle></g><circle cx="0" cy="0" r="2.4" fill="#F5B82E"></circle></g><g transform="translate(690,760)"><line x1="0" y1="0" x2="0" y2="12" stroke="#4d8a2c" stroke-width="2"></line><g fill="#fff"><circle cx="0" cy="-4" r="4"></circle><circle cx="-4" cy="0" r="4"></circle><circle cx="4" cy="0" r="4"></circle><circle cx="0" cy="4" r="4"></circle></g><circle cx="0" cy="0" r="2.4" fill="#F5B82E"></circle></g><g transform="translate(705,770)"><line x1="0" y1="0" x2="0" y2="12" stroke="#4d8a2c" stroke-width="2"></line><g fill="#7653B5"><circle cx="0" cy="-4" r="4"></circle><circle cx="-4" cy="0" r="4"></circle><circle cx="4" cy="0" r="4"></circle><circle cx="0" cy="4" r="4"></circle></g><circle cx="0" cy="0" r="2.4" fill="#F5B82E"></circle></g><g transform="translate(720,760)"><line x1="0" y1="0" x2="0" y2="12" stroke="#4d8a2c" stroke-width="2"></line><g fill="#7653B5"><circle cx="0" cy="-4" r="4"></circle><circle cx="-4" cy="0" r="4"></circle><circle cx="4" cy="0" r="4"></circle><circle cx="0" cy="4" r="4"></circle></g><circle cx="0" cy="0" r="2.4" fill="#F5B82E"></circle></g><g transform="translate(910,748)"><line x1="0" y1="0" x2="0" y2="12" stroke="#4d8a2c" stroke-width="2"></line><g fill="#F47C6B"><circle cx="0" cy="-4" r="4"></circle><circle cx="-4" cy="0" r="4"></circle><circle cx="4" cy="0" r="4"></circle><circle cx="0" cy="4" r="4"></circle></g><circle cx="0" cy="0" r="2.4" fill="#F5B82E"></circle></g><g transform="translate(925,758)"><line x1="0" y1="0" x2="0" y2="12" stroke="#4d8a2c" stroke-width="2"></line><g fill="#F5B82E"><circle cx="0" cy="-4" r="4"></circle><circle cx="-4" cy="0" r="4"></circle><circle cx="4" cy="0" r="4"></circle><circle cx="0" cy="4" r="4"></circle></g><circle cx="0" cy="0" r="2.4" fill="#F5B82E"></circle></g><g transform="translate(940,748)"><line x1="0" y1="0" x2="0" y2="12" stroke="#4d8a2c" stroke-width="2"></line><g fill="#fff"><circle cx="0" cy="-4" r="4"></circle><circle cx="-4" cy="0" r="4"></circle><circle cx="4" cy="0" r="4"></circle><circle cx="0" cy="4" r="4"></circle></g><circle cx="0" cy="0" r="2.4" fill="#F5B82E"></circle></g><g transform="translate(955,758)"><line x1="0" y1="0" x2="0" y2="12" stroke="#4d8a2c" stroke-width="2"></line><g fill="#7653B5"><circle cx="0" cy="-4" r="4"></circle><circle cx="-4" cy="0" r="4"></circle><circle cx="4" cy="0" r="4"></circle><circle cx="0" cy="4" r="4"></circle></g><circle cx="0" cy="0" r="2.4" fill="#F5B82E"></circle></g><g transform="translate(970,748)"><line x1="0" y1="0" x2="0" y2="12" stroke="#4d8a2c" stroke-width="2"></line><g fill="#F47C6B"><circle cx="0" cy="-4" r="4"></circle><circle cx="-4" cy="0" r="4"></circle><circle cx="4" cy="0" r="4"></circle><circle cx="0" cy="4" r="4"></circle></g><circle cx="0" cy="0" r="2.4" fill="#F5B82E"></circle></g><g transform="translate(1090,730)"><line x1="0" y1="0" x2="0" y2="12" stroke="#4d8a2c" stroke-width="2"></line><g fill="#F5B82E"><circle cx="0" cy="-4" r="4"></circle><circle cx="-4" cy="0" r="4"></circle><circle cx="4" cy="0" r="4"></circle><circle cx="0" cy="4" r="4"></circle></g><circle cx="0" cy="0" r="2.4" fill="#F5B82E"></circle></g><g transform="translate(1105,740)"><line x1="0" y1="0" x2="0" y2="12" stroke="#4d8a2c" stroke-width="2"></line><g fill="#F5B82E"><circle cx="0" cy="-4" r="4"></circle><circle cx="-4" cy="0" r="4"></circle><circle cx="4" cy="0" r="4"></circle><circle cx="0" cy="4" r="4"></circle></g><circle cx="0" cy="0" r="2.4" fill="#F5B82E"></circle></g><g transform="translate(1120,730)"><line x1="0" y1="0" x2="0" y2="12" stroke="#4d8a2c" stroke-width="2"></line><g fill="#fff"><circle cx="0" cy="-4" r="4"></circle><circle cx="-4" cy="0" r="4"></circle><circle cx="4" cy="0" r="4"></circle><circle cx="0" cy="4" r="4"></circle></g><circle cx="0" cy="0" r="2.4" fill="#F5B82E"></circle></g><g transform="translate(1135,740)"><line x1="0" y1="0" x2="0" y2="12" stroke="#4d8a2c" stroke-width="2"></line><g fill="#7653B5"><circle cx="0" cy="-4" r="4"></circle><circle cx="-4" cy="0" r="4"></circle><circle cx="4" cy="0" r="4"></circle><circle cx="0" cy="4" r="4"></circle></g><circle cx="0" cy="0" r="2.4" fill="#F5B82E"></circle></g><g transform="translate(1150,730)"><line x1="0" y1="0" x2="0" y2="12" stroke="#4d8a2c" stroke-width="2"></line><g fill="#F5B82E"><circle cx="0" cy="-4" r="4"></circle><circle cx="-4" cy="0" r="4"></circle><circle cx="4" cy="0" r="4"></circle><circle cx="0" cy="4" r="4"></circle></g><circle cx="0" cy="0" r="2.4" fill="#F5B82E"></circle></g>

<g stroke="#4d8a2c" stroke-width="3" stroke-linecap="round"><line x1="30" y1="778" x2="25" y2="766"></line><line x1="30" y1="778" x2="30" y2="763"></line><line x1="30" y1="778" x2="35" y2="766"></line><line x1="78" y1="772" x2="73" y2="760"></line><line x1="78" y1="772" x2="78" y2="757"></line><line x1="78" y1="772" x2="83" y2="760"></line><line x1="126" y1="766" x2="121" y2="754"></line><line x1="126" y1="766" x2="126" y2="751"></line><line x1="126" y1="766" x2="131" y2="754"></line><line x1="174" y1="778" x2="169" y2="766"></line><line x1="174" y1="778" x2="174" y2="763"></line><line x1="174" y1="778" x2="179" y2="766"></line><line x1="222" y1="772" x2="217" y2="760"></line><line x1="222" y1="772" x2="222" y2="757"></line><line x1="222" y1="772" x2="227" y2="760"></line><line x1="270" y1="766" x2="265" y2="754"></line><line x1="270" y1="766" x2="270" y2="751"></line><line x1="270" y1="766" x2="275" y2="754"></line><line x1="318" y1="778" x2="313" y2="766"></line><line x1="318" y1="778" x2="318" y2="763"></line><line x1="318" y1="778" x2="323" y2="766"></line><line x1="366" y1="772" x2="361" y2="760"></line><line x1="366" y1="772" x2="366" y2="757"></line><line x1="366" y1="772" x2="371" y2="760"></line><line x1="414" y1="766" x2="409" y2="754"></line><line x1="414" y1="766" x2="414" y2="751"></line><line x1="414" y1="766" x2="419" y2="754"></line><line x1="462" y1="778" x2="457" y2="766"></line><line x1="462" y1="778" x2="462" y2="763"></line><line x1="462" y1="778" x2="467" y2="766"></line><line x1="510" y1="772" x2="505" y2="760"></line><line x1="510" y1="772" x2="510" y2="757"></line><line x1="510" y1="772" x2="515" y2="760"></line><line x1="558" y1="766" x2="553" y2="754"></line><line x1="558" y1="766" x2="558" y2="751"></line><line x1="558" y1="766" x2="563" y2="754"></line><line x1="606" y1="778" x2="601" y2="766"></line><line x1="606" y1="778" x2="606" y2="763"></line><line x1="606" y1="778" x2="611" y2="766"></line><line x1="654" y1="772" x2="649" y2="760"></line><line x1="654" y1="772" x2="654" y2="757"></line><line x1="654" y1="772" x2="659" y2="760"></line><line x1="702" y1="766" x2="697" y2="754"></line><line x1="702" y1="766" x2="702" y2="751"></line><line x1="702" y1="766" x2="707" y2="754"></line><line x1="750" y1="778" x2="745" y2="766"></line><line x1="750" y1="778" x2="750" y2="763"></line><line x1="750" y1="778" x2="755" y2="766"></line><line x1="798" y1="772" x2="793" y2="760"></line><line x1="798" y1="772" x2="798" y2="757"></line><line x1="798" y1="772" x2="803" y2="760"></line><line x1="846" y1="766" x2="841" y2="754"></line><line x1="846" y1="766" x2="846" y2="751"></line><line x1="846" y1="766" x2="851" y2="754"></line><line x1="894" y1="778" x2="889" y2="766"></line><line x1="894" y1="778" x2="894" y2="763"></line><line x1="894" y1="778" x2="899" y2="766"></line><line x1="942" y1="772" x2="937" y2="760"></line><line x1="942" y1="772" x2="942" y2="757"></line><line x1="942" y1="772" x2="947" y2="760"></line><line x1="990" y1="766" x2="985" y2="754"></line><line x1="990" y1="766" x2="990" y2="751"></line><line x1="990" y1="766" x2="995" y2="754"></line><line x1="1038" y1="778" x2="1033" y2="766"></line><line x1="1038" y1="778" x2="1038" y2="763"></line><line x1="1038" y1="778" x2="1043" y2="766"></line><line x1="1086" y1="772" x2="1081" y2="760"></line><line x1="1086" y1="772" x2="1086" y2="757"></line><line x1="1086" y1="772" x2="1091" y2="760"></line><line x1="1134" y1="766" x2="1129" y2="754"></line><line x1="1134" y1="766" x2="1134" y2="751"></line><line x1="1134" y1="766" x2="1139" y2="754"></line><line x1="1182" y1="778" x2="1177" y2="766"></line><line x1="1182" y1="778" x2="1182" y2="763"></line><line x1="1182" y1="778" x2="1187" y2="766"></line><line x1="1230" y1="772" x2="1225" y2="760"></line><line x1="1230" y1="772" x2="1230" y2="757"></line><line x1="1230" y1="772" x2="1235" y2="760"></line></g>
</svg>