<svg xmlns="http://www.w3.org/2000/svg" viewBox="0 0 260 270" width="260" height="270"><defs><linearGradient id="dm" x1="0" y1="0" x2="0" y2="1"><stop offset="0%" stop-color="#bfe3f5"></stop><stop offset="100%" stop-color="#7fbfe0"></stop></linearGradient><linearGradient id="wl" x1="0" y1="0" x2="0" y2="1"><stop offset="0%" stop-color="#dfeef7"></stop><stop offset="100%" stop-color="#b9d6e6"></stop></linearGradient></defs><ellipse cx="130" cy="250" rx="120" ry="22" fill="#7DBE4E"></ellipse><ellipse cx="130" cy="252" rx="120" ry="18" fill="#66A83E"></ellipse><rect x="78" y="150" width="104" height="104" rx="10" fill="url(#wl)"></rect><rect x="78" y="150" width="104" height="104" rx="10" fill="none" stroke="#8fb4c8" stroke-width="3"></rect><path d="M78 150 a52 44 0 0 1 104 0 z" fill="url(#dm)"></path><path d="M78 150 a52 44 0 0 1 104 0 z" fill="none" stroke="#8fb4c8" stroke-width="3"></path><line x1="130" y1="106" x2="130" y2="150" stroke="#8fb4c8" stroke-width="2"></line><rect x="112" y="196" width="36" height="58" rx="6" fill="#5a86a0"></rect><rect x="92" y="170" width="22" height="22" rx="4" fill="#a9d4ea"></rect><rect x="146" y="170" width="22" height="22" rx="4" fill="#a9d4ea"></rect><g>
    <rect x="18" y="18" width="224" height="54" rx="17" fill="#66A83E"></rect>
    <rect x="18" y="18" width="224" height="54" rx="17" fill="none" stroke="#4d8a2c" stroke-width="3"></rect>
    <line x1="86" y1="2" x2="78" y2="18" stroke="#4d8a2c" stroke-width="4" stroke-linecap="round"></line><line x1="174" y1="2" x2="182" y2="18" stroke="#4d8a2c" stroke-width="4" stroke-linecap="round"></line>
    <circle cx="48" cy="46" r="24" fill="#fff"></circle><path d="M44 34 h8 v9 l9 16 a4 4 0 0 1 -3.5 6 h-19 a4 4 0 0 1 -3.5 -6 l9 -16 z" fill="none" stroke="#66A83E" stroke-width="3" stroke-linejoin="round"></path><line x1="42" y1="34" x2="54" y2="34" stroke="#66A83E" stroke-width="3" stroke-linecap="round"></line><circle cx="45" cy="56" r="2" fill="#66A83E"></circle><circle cx="51" cy="60" r="1.6" fill="#66A83E"></circle>
    <text x="157" y="53" font-family="&#39;Baloo 2&#39;,Verdana,sans-serif" font-size="19" font-weight="800" text-anchor="middle" fill="#fff">Discovery Lab</text>
  </g></svg>