<svg xmlns="http://www.w3.org/2000/svg" viewBox="0 0 800 500">
  <defs><linearGradient id="ebg" x1="0" y1="0" x2="0" y2="1"><stop offset="0%" stop-color="#FFF8E1"/><stop offset="100%" stop-color="#FFE082"/></linearGradient></defs>
  <rect width="800" height="500" fill="url(#ebg)" rx="20"/>
  <rect x="120" y="20" width="560" height="46" rx="14" fill="#5D4037"/><text x="400" y="50" text-anchor="middle" font-family="sans-serif" font-size="18" font-weight="bold" fill="#FFE082">📚 Character Traits: Who Is in the Story?</text>
  <!-- Brave --><g transform="translate(45, 100)"><rect x="0" y="0" width="160" height="170" rx="14" fill="white" stroke="#FFA000" stroke-width="2"/><text x="80" y="22" text-anchor="middle" font-family="sans-serif" font-size="18">🦸</text><path d="M58 50 Q80 82 102 50" fill="#E53935"/><circle cx="80" cy="46" r="19" fill="#FFCC80"/><circle cx="72" cy="42" r="3" fill="#333"/><circle cx="88" cy="42" r="3" fill="#333"/><path d="M72 52 Q80 59 88 52" stroke="#333" stroke-width="1.5" fill="none"/><rect x="65" y="63" width="30" height="18" rx="4" fill="#64B5F6"/><text x="80" y="105" text-anchor="middle" font-family="sans-serif" font-size="14" font-weight="bold" fill="#E65100">BRAVE</text><text x="80" y="122" text-anchor="middle" font-family="sans-serif" font-size="9.5" fill="#795548">Not afraid</text><text x="80" y="135" text-anchor="middle" font-family="sans-serif" font-size="9.5" fill="#795548">to try new things!</text><text x="80" y="153" text-anchor="middle" font-family="sans-serif" font-size="9" fill="#FFA000">"I can do it!"</text></g>
  <!-- Kind --><g transform="translate(235, 100)"><rect x="0" y="0" width="160" height="170" rx="14" fill="white" stroke="#FFA000" stroke-width="2"/><text x="80" y="22" text-anchor="middle" font-family="sans-serif" font-size="18">🧑‍🤝‍🧑</text><circle cx="60" cy="55" r="14" fill="#FFCC80"/><circle cx="55" cy="52" r="2.2" fill="#333"/><circle cx="65" cy="52" r="2.2" fill="#333"/><circle cx="100" cy="55" r="14" fill="#EF9A9A"/><circle cx="95" cy="52" r="2.2" fill="#333"/><circle cx="105" cy="52" r="2.2" fill="#333"/><text x="80" y="68" text-anchor="middle" font-size="12">💕</text><text x="80" y="105" text-anchor="middle" font-family="sans-serif" font-size="14" font-weight="bold" fill="#E65100">KIND</text><text x="80" y="122" text-anchor="middle" font-family="sans-serif" font-size="9.5" fill="#795548">Helps others</text><text x="80" y="135" text-anchor="middle" font-family="sans-serif" font-size="9.5" fill="#795548">and shares!</text><text x="80" y="153" text-anchor="middle" font-family="sans-serif" font-size="9" fill="#FFA000">"Let me help!"</text></g>
  <!-- Curious --><g transform="translate(425, 100)"><rect x="0" y="0" width="160" height="170" rx="14" fill="white" stroke="#FFA000" stroke-width="2"/><text x="80" y="22" text-anchor="middle" font-family="sans-serif" font-size="18">🔍</text><circle cx="80" cy="47" r="20" fill="#FFCC80"/><circle cx="71" cy="42" r="3" fill="#333"/><circle cx="89" cy="42" r="3" fill="#333"/><path d="M71 53 Q80 60 89 53" stroke="#333" stroke-width="1.5" fill="none"/><circle cx="100" cy="58" r="9" fill="none" stroke="#5D4037" stroke-width="2.5"/><line x1="106" y1="64" x2="113" y2="71" stroke="#5D4037" stroke-width="2.5"/><rect x="65" y="63" width="30" height="16" rx="4" fill="#CE93D8"/><text x="80" y="105" text-anchor="middle" font-family="sans-serif" font-size="14" font-weight="bold" fill="#E65100">CURIOUS</text><text x="80" y="122" text-anchor="middle" font-family="sans-serif" font-size="9.5" fill="#795548">Always asking</text><text x="80" y="135" text-anchor="middle" font-family="sans-serif" font-size="9.5" fill="#795548">questions!</text><text x="80" y="153" text-anchor="middle" font-family="sans-serif" font-size="9" fill="#FFA000">"Why? How?"</text></g>
  <!-- Honest --><g transform="translate(615, 100)"><rect x="0" y="0" width="140" height="170" rx="14" fill="white" stroke="#FFA000" stroke-width="2"/><text x="70" y="22" text-anchor="middle" font-family="sans-serif" font-size="18">🤲</text><circle cx="70" cy="47" r="19" fill="#FFCC80"/><circle cx="62" cy="43" r="3" fill="#333"/><circle cx="78" cy="43" r="3" fill="#333"/><path d="M62 53 Q70 59 78 53" stroke="#333" stroke-width="1.5" fill="none"/><rect x="55" y="63" width="30" height="16" rx="4" fill="#81C784"/><text x="70" y="105" text-anchor="middle" font-family="sans-serif" font-size="14" font-weight="bold" fill="#E65100">HONEST</text><text x="70" y="122" text-anchor="middle" font-family="sans-serif" font-size="9.5" fill="#795548">Always tells</text><text x="70" y="135" text-anchor="middle" font-family="sans-serif" font-size="9.5" fill="#795548">the truth!</text><text x="70" y="153" text-anchor="middle" font-family="sans-serif" font-size="9" fill="#FFA000">"I am truthful"</text></g>
  <rect x="150" y="420" width="500" height="42" rx="10" fill="#5D4037" opacity="0.1"/><text x="400" y="446" text-anchor="middle" font-family="sans-serif" font-size="13" fill="#5D4037">What traits does YOUR favorite character have? Brave? Kind? Curious? 🤔</text>
</svg>