<svg xmlns="http://www.w3.org/2000/svg" viewBox="0 0 200 200" width="200" height="200">
  <defs><linearGradient id="bdduke" x1="0" y1="0" x2="0" y2="1"><stop offset="0%" stop-color="#E4B36A"></stop><stop offset="100%" stop-color="#C68B3E"></stop></linearGradient><linearGradient id="hdduke" x1="0" y1="0" x2="0" y2="1"><stop offset="0%" stop-color="#E4B36A"></stop><stop offset="100%" stop-color="#C68B3E"></stop></linearGradient></defs>
  <ellipse cx="100" cy="186" rx="62" ry="10" fill="#183B4A" opacity=".14"></ellipse>
  <path d="M150 170 q34 4 30 -30 q-2 -20 -20 -16 q14 4 10 22 q-4 22 -26 20 z" fill="url(#bdduke)"></path>
  <ellipse cx="100" cy="150" rx="50" ry="44" fill="url(#bdduke)"></ellipse>
  <ellipse cx="100" cy="158" rx="30" ry="30" fill="#F6E4C4"></ellipse>
  <ellipse cx="80" cy="184" rx="15" ry="11" fill="url(#bdduke)"></ellipse>
  <ellipse cx="120" cy="184" rx="15" ry="11" fill="url(#bdduke)"></ellipse>
  <ellipse cx="80" cy="186" rx="9" ry="6" fill="#F6E4C4"></ellipse>
  <ellipse cx="120" cy="186" rx="9" ry="6" fill="#F6E4C4"></ellipse>
  <path d="M64 116 q36 22 72 0 l4 13 q-40 24 -80 0z" fill="#3C9DDB"></path><path d="M132 126 l14 22 l-12 4 l-8 -22z" fill="#2b7bb0"></path><circle cx="100" cy="122" r="4" fill="#fff" opacity=".8"></circle><path d="M100 156 l-7 -7 a4.5 4.5 0 1 1 7 -1 a4.5 4.5 0 1 1 7 1 z" fill="#F47C6B"></path>
  
  <path d="M62 52 q-30 -6 -30 26 q0 24 20 24 q-6 -22 18 -38 z" fill="#B5772E"></path>
  <path d="M138 52 q30 -6 30 26 q0 24 -20 24 q6 -22 -18 -38 z" fill="#B5772E"></path>
  
  <ellipse cx="100" cy="76" rx="46" ry="43" fill="url(#hdduke)"></ellipse>
  
  <ellipse cx="100" cy="98" rx="26" ry="21" fill="#F6E4C4"></ellipse>
  <ellipse cx="100" cy="90" rx="9" ry="7" fill="#3a2a20"></ellipse>
  <path d="M100 96 Q100 108 90 107 M100 96 Q100 108 110 107" stroke="#6b4a34" stroke-width="2.4" fill="none" stroke-linecap="round"></path>
  <path d="M96 106 q4 5 8 0" fill="#F08A9B"></path>
  
  <ellipse cx="84" cy="72" rx="10" ry="12" fill="#fff"></ellipse><ellipse cx="116" cy="72" rx="10" ry="12" fill="#fff"></ellipse>
  <circle cx="85" cy="74" r="7" fill="#7653B5"></circle><circle cx="115" cy="74" r="7" fill="#7653B5"></circle>
  <circle cx="85" cy="74.5" r="3.6" fill="#183B4A"></circle><circle cx="115" cy="74.5" r="3.6" fill="#183B4A"></circle>
  <circle cx="87.5" cy="71.5" r="2" fill="#fff"></circle><circle cx="117.5" cy="71.5" r="2" fill="#fff"></circle>
  
  <ellipse cx="82" cy="58" rx="8" ry="5" fill="#C68B3E" opacity=".5"></ellipse><ellipse cx="118" cy="58" rx="8" ry="5" fill="#C68B3E" opacity=".5"></ellipse>
  
  </svg>