<svg xmlns="http://www.w3.org/2000/svg" viewBox="0 0 200 200" width="200" height="200">
  <defs><linearGradient id="bdmilo" x1="0" y1="0" x2="0" y2="1"><stop offset="0%" stop-color="#F79A4B"></stop><stop offset="100%" stop-color="#E8722C"></stop></linearGradient><linearGradient id="hdmilo" x1="0" y1="0" x2="0" y2="1"><stop offset="0%" stop-color="#F79A4B"></stop><stop offset="100%" stop-color="#E8722C"></stop></linearGradient></defs>
  <ellipse cx="100" cy="186" rx="62" ry="10" fill="#183B4A" opacity=".14"></ellipse>
  
  <path d="M150 168 q40 -6 34 -44 q-3 -24 -22 -22 q16 6 12 26 q-4 26 -30 30 z" fill="url(#bdmilo)"></path>
  
  <ellipse cx="100" cy="150" rx="50" ry="44" fill="url(#bdmilo)"></ellipse>
  <ellipse cx="100" cy="158" rx="30" ry="30" fill="#FFF3E0"></ellipse>
  
  
  <ellipse cx="80" cy="184" rx="15" ry="11" fill="url(#bdmilo)"></ellipse>
  <ellipse cx="120" cy="184" rx="15" ry="11" fill="url(#bdmilo)"></ellipse>
  <ellipse cx="80" cy="186" rx="9" ry="6" fill="#FFF3E0"></ellipse>
  <ellipse cx="120" cy="186" rx="9" ry="6" fill="#FFF3E0"></ellipse>
  <g><path d="M58 150 q-16 -4 -14 18 q2 20 20 22 l0 -40 z" fill="#0F7377"></path><rect x="52" y="150" width="10" height="18" rx="3" fill="#F5B82E"></rect></g>
  
  <path d="M64 46 L60 12 L94 42 Z" fill="url(#hdmilo)"></path>
  <path d="M136 46 L140 12 L106 42 Z" fill="url(#hdmilo)"></path>
  <path d="M69 44 L67 22 L86 42 Z" fill="#F7C39B"></path>
  <path d="M131 44 L133 22 L114 42 Z" fill="#F7C39B"></path>
  
  <ellipse cx="100" cy="78" rx="47" ry="44" fill="url(#hdmilo)"></ellipse>
  
  <g stroke="#CF5F1E" stroke-width="3" stroke-linecap="round" opacity=".8">
    <line x1="100" y1="34" x2="100" y2="46"></line><line x1="86" y1="37" x2="82" y2="48"></line><line x1="114" y1="37" x2="118" y2="48"></line>
    <line x1="60" y1="150" x2="72" y2="150"></line><line x1="60" y1="162" x2="72" y2="162"></line><line x1="128" y1="150" x2="140" y2="150"></line><line x1="128" y1="162" x2="140" y2="162"></line></g>
  
  <ellipse cx="100" cy="94" rx="30" ry="22" fill="#FFF3E0"></ellipse>
  
  <ellipse cx="84" cy="74" rx="11" ry="13" fill="#fff"></ellipse>
  <ellipse cx="116" cy="74" rx="11" ry="13" fill="#fff"></ellipse>
  <circle cx="85" cy="76" r="7.5" fill="#66A83E"></circle><circle cx="115" cy="76" r="7.5" fill="#66A83E"></circle>
  <circle cx="85" cy="76.5" r="4" fill="#183B4A"></circle><circle cx="115" cy="76.5" r="4" fill="#183B4A"></circle>
  <circle cx="87.5" cy="73.5" r="2.2" fill="#fff"></circle><circle cx="117.5" cy="73.5" r="2.2" fill="#fff"></circle>
  
  <path d="M93 90 L107 90 L100 98 Z" fill="#F08A9B"></path>
  <path d="M100 98 Q100 106 91 105 M100 98 Q100 106 109 105" stroke="#8a5a3a" stroke-width="2.4" fill="none" stroke-linecap="round"></path>
  
  <g stroke="#8a5a3a" stroke-width="2" stroke-linecap="round" opacity=".85"><line x1="72" y1="90" x2="46" y2="86"></line><line x1="72" y1="96" x2="46" y2="98"></line><line x1="128" y1="90" x2="154" y2="86"></line><line x1="128" y1="96" x2="154" y2="98"></line></g>
  
  </svg>