<svg xmlns="http://www.w3.org/2000/svg" viewBox="0 0 800 500">
  <defs><radialGradient id="gglow" cx="50%" cy="30%" r="60%"><stop offset="0%" stop-color="#FCE4EC"/><stop offset="100%" stop-color="#F8BBD0"/></radialGradient></defs>
  <rect width="800" height="500" fill="url(#gglow)" rx="20"/>
  <text x="60" y="80" font-size="24" opacity="0.12">❤</text><text x="700" y="120" font-size="20" opacity="0.1">❤</text><text x="150" y="440" font-size="18" opacity="0.12">❤</text>
  <rect x="180" y="30" width="440" height="48" rx="14" fill="#AD1457"/><text x="400" y="61" text-anchor="middle" font-family="sans-serif" font-size="18" font-weight="bold" fill="white">💖 Tiwala sa Sarili</text>
  <!-- Scene 1 --><g transform="translate(70, 110)"><rect x="0" y="0" width="190" height="140" rx="12" fill="white" stroke="#F48FB1" stroke-width="2"/><text x="95" y="22" text-anchor="middle" font-family="sans-serif" font-size="11" font-weight="bold" fill="#AD1457">Sa Paaralan</text><rect x="55" y="85" width="80" height="8" rx="2" fill="#8D6E63"/><circle cx="95" cy="55" r="18" fill="#FFCC80"/><circle cx="88" cy="51" r="3" fill="#333"/><circle cx="102" cy="51" r="3" fill="#333"/><path d="M88 63 Q95 69 102 63" stroke="#333" stroke-width="1.5" fill="none"/><line x1="108" y1="50" x2="128" y2="30" stroke="#FFCC80" stroke-width="5" stroke-linecap="round"/><text x="132" y="28" font-size="14">✋</text><rect x="80" y="65" width="30" height="18" rx="4" fill="#64B5F6"/><text x="95" y="128" text-anchor="middle" font-family="sans-serif" font-size="9" fill="#666">Sumasagot sa klase!</text></g>
  <!-- Scene 2 --><g transform="translate(305, 110)"><rect x="0" y="0" width="190" height="140" rx="12" fill="white" stroke="#F48FB1" stroke-width="2"/><text x="95" y="22" text-anchor="middle" font-family="sans-serif" font-size="11" font-weight="bold" fill="#AD1457">Sa Bahay</text><rect x="45" y="82" width="100" height="6" rx="2" fill="#8D6E63"/><circle cx="95" cy="52" r="18" fill="#FFCC80"/><circle cx="88" cy="48" r="3" fill="#333"/><circle cx="102" cy="48" r="3" fill="#333"/><line x1="118" y1="38" x2="148" y2="105" stroke="#795548" stroke-width="3"/><rect x="133" y="100" width="25" height="12" rx="2" fill="#FFCC80"/><rect x="80" y="62" width="30" height="18" rx="4" fill="#81C784"/><text x="95" y="128" text-anchor="middle" font-family="sans-serif" font-size="9" fill="#666">Tumutulong sa bahay!</text></g>
  <!-- Scene 3 --><g transform="translate(540, 110)"><rect x="0" y="0" width="190" height="140" rx="12" fill="white" stroke="#F48FB1" stroke-width="2"/><text x="95" y="22" text-anchor="middle" font-family="sans-serif" font-size="11" font-weight="bold" fill="#AD1457">Sa Kaibigan</text><circle cx="75" cy="52" r="16" fill="#FFCC80"/><circle cx="69" cy="49" r="2.5" fill="#333"/><circle cx="81" cy="49" r="2.5" fill="#333"/><circle cx="115" cy="52" r="16" fill="#EF9A9A"/><circle cx="109" cy="49" r="2.5" fill="#333"/><circle cx="121" cy="49" r="2.5" fill="#333"/><rect x="85" y="65" width="16" height="12" rx="3" fill="#FFD54F"/><text x="95" y="128" text-anchor="middle" font-family="sans-serif" font-size="9" fill="#666">Nakikipagkaibigan!</text></g>
  <text x="400" y="320" text-anchor="middle" font-size="55" opacity="0.6">💖</text>
  <text x="400" y="480" text-anchor="middle" font-family="sans-serif" font-size="15" font-weight="bold" fill="#AD1457">Kaya mo 'yan! Maniwala ka sa iyong sarili ✨</text>
</svg>