<svg xmlns="http://www.w3.org/2000/svg" viewBox="0 0 260 270" width="260" height="270"><defs><linearGradient id="np" x1="0" y1="0" x2="0" y2="1"><stop offset="0%" stop-color="#d9b46a"></stop><stop offset="100%" stop-color="#b8923f"></stop></linearGradient><linearGradient id="rf" x1="0" y1="0" x2="0" y2="1"><stop offset="0%" stop-color="#c8a86a"></stop><stop offset="100%" stop-color="#9c8047"></stop></linearGradient></defs><ellipse cx="130" cy="250" rx="120" ry="22" fill="#7DBE4E"></ellipse><ellipse cx="130" cy="252" rx="120" ry="18" fill="#66A83E"></ellipse><rect x="86" y="168" width="88" height="86" rx="6" fill="url(#np)"></rect><g stroke="#a8863c" stroke-width="2"><line x1="86" y1="188" x2="174" y2="188"></line><line x1="86" y1="210" x2="174" y2="210"></line><line x1="86" y1="232" x2="174" y2="232"></line><line x1="110" y1="168" x2="110" y2="254"></line><line x1="150" y1="168" x2="150" y2="254"></line></g><path d="M70 172 L130 116 L190 172 Z" fill="url(#rf)"></path><path d="M70 172 L130 116 L190 172 Z" fill="none" stroke="#8a6f3c" stroke-width="3"></path><rect x="116" y="206" width="28" height="48" rx="4" fill="#7a5a34"></rect><g>
    <rect x="18" y="18" width="224" height="54" rx="17" fill="#F47C6B"></rect>
    <rect x="18" y="18" width="224" height="54" rx="17" fill="none" stroke="#d85c4b" stroke-width="3"></rect>
    <line x1="86" y1="2" x2="78" y2="18" stroke="#d85c4b" stroke-width="4" stroke-linecap="round"></line><line x1="174" y1="2" x2="182" y2="18" stroke="#d85c4b" stroke-width="4" stroke-linecap="round"></line>
    <circle cx="48" cy="46" r="24" fill="#fff"></circle><circle cx="48" cy="46" r="7" fill="#F47C6B"></circle><g stroke="#F47C6B" stroke-width="2.4" stroke-linecap="round"><line x1="48" y1="30" x2="48" y2="34"></line><line x1="48" y1="58" x2="48" y2="62"></line><line x1="32" y1="46" x2="36" y2="46"></line><line x1="60" y1="46" x2="64" y2="46"></line><line x1="37" y1="35" x2="40" y2="38"></line><line x1="56" y1="54" x2="59" y2="57"></line><line x1="59" y1="35" x2="56" y2="38"></line><line x1="40" y1="54" x2="37" y2="57"></line></g>
    <text x="157" y="53" font-family="&#39;Baloo 2&#39;,Verdana,sans-serif" font-size="19" font-weight="800" text-anchor="middle" fill="#fff">Bahay Kuwento</text>
  </g></svg>