<svg xmlns="http://www.w3.org/2000/svg" viewBox="0 0 260 270" width="260" height="270"><defs><linearGradient id="st" x1="0" y1="0" x2="0" y2="1"><stop offset="0%" stop-color="#cdbb92"></stop><stop offset="100%" stop-color="#a8946a"></stop></linearGradient></defs><ellipse cx="130" cy="250" rx="120" ry="22" fill="#7DBE4E"></ellipse><ellipse cx="130" cy="252" rx="120" ry="18" fill="#66A83E"></ellipse><rect x="86" y="130" width="88" height="124" rx="8" fill="url(#st)"></rect><g stroke="#9a875f" stroke-width="2"><line x1="86" y1="156" x2="174" y2="156"></line><line x1="86" y1="184" x2="174" y2="184"></line><line x1="86" y1="212" x2="174" y2="212"></line><line x1="130" y1="130" x2="130" y2="254"></line></g><path d="M82 130 h96 l-8 -14 h-12 v10 h-14 v-10 h-12 v10 h-14 v-10 h-12 v10 h-12 z" fill="#a8946a"></path><rect x="112" y="206" width="36" height="48" rx="4" fill="#6f5a34"></rect><g>
    <rect x="18" y="18" width="224" height="54" rx="17" fill="#B8862B"></rect>
    <rect x="18" y="18" width="224" height="54" rx="17" fill="none" stroke="#8a6212" stroke-width="3"></rect>
    <line x1="86" y1="2" x2="78" y2="18" stroke="#8a6212" stroke-width="4" stroke-linecap="round"></line><line x1="174" y1="2" x2="182" y2="18" stroke="#8a6212" stroke-width="4" stroke-linecap="round"></line>
    <circle cx="48" cy="46" r="24" fill="#fff"></circle><g stroke="#B8862B" stroke-width="3" fill="none" stroke-linecap="round"><line x1="48" y1="38" x2="48" y2="58"></line><path d="M38 52 a10 10 0 0 0 20 0"></path><line x1="42" y1="42" x2="54" y2="42"></line></g><circle cx="48" cy="36" r="3.2" fill="none" stroke="#B8862B" stroke-width="3"></circle>
    <text x="157" y="53" font-family="&#39;Baloo 2&#39;,Verdana,sans-serif" font-size="19" font-weight="800" text-anchor="middle" fill="#fff">Heritage Harbor</text>
  </g></svg>