<svg xmlns="http://www.w3.org/2000/svg" viewBox="0 0 260 270" width="260" height="270"><ellipse cx="130" cy="250" rx="120" ry="22" fill="#7DBE4E"></ellipse><ellipse cx="130" cy="252" rx="120" ry="18" fill="#66A83E"></ellipse><rect x="70" y="150" width="120" height="104" rx="10" fill="#e9c98f"></rect><rect x="70" y="150" width="120" height="104" rx="10" fill="none" stroke="#c99a5a" stroke-width="3"></rect><rect x="86" y="176" width="36" height="78" rx="6" fill="#7a5a34"></rect><rect x="138" y="176" width="36" height="52" rx="6" fill="#c47f3a"></rect><g><rect x="60" y="118" width="140" height="34" rx="8" fill="#fff"></rect><rect x="60" y="118" width="20" height="34" fill="#e2534a"></rect><rect x="100" y="118" width="20" height="34" fill="#e2534a"></rect><rect x="140" y="118" width="20" height="34" fill="#e2534a"></rect><rect x="180" y="118" width="20" height="34" fill="#e2534a"></rect><path d="M60 152 h140 v4 a70 12 0 0 1 -140 0 z" fill="#e2534a"></path></g><g>
    <rect x="18" y="18" width="224" height="54" rx="17" fill="#3C9DDB"></rect>
    <rect x="18" y="18" width="224" height="54" rx="17" fill="none" stroke="#2b7bb0" stroke-width="3"></rect>
    <line x1="86" y1="2" x2="78" y2="18" stroke="#2b7bb0" stroke-width="4" stroke-linecap="round"></line><line x1="174" y1="2" x2="182" y2="18" stroke="#2b7bb0" stroke-width="4" stroke-linecap="round"></line>
    <circle cx="48" cy="46" r="24" fill="#fff"></circle><text x="48" y="55" font-family="Verdana,sans-serif" font-size="22" font-weight="800" text-anchor="middle" fill="#3C9DDB">123</text>
    <text x="157" y="53" font-family="&#39;Baloo 2&#39;,Verdana,sans-serif" font-size="19" font-weight="800" text-anchor="middle" fill="#fff">Number Market</text>
  </g></svg>