<svg xmlns="http://www.w3.org/2000/svg" viewBox="0 0 260 270" width="260" height="270"><defs><linearGradient id="tk" x1="0" y1="0" x2="0" y2="1"><stop offset="0%" stop-color="#9c6b3f"></stop><stop offset="100%" stop-color="#6f4a29"></stop></linearGradient><linearGradient id="lf" x1="0" y1="0" x2="0" y2="1"><stop offset="0%" stop-color="#7cc24a"></stop><stop offset="100%" stop-color="#4f9a2e"></stop></linearGradient></defs><ellipse cx="130" cy="250" rx="120" ry="22" fill="#7DBE4E"></ellipse><ellipse cx="130" cy="252" rx="120" ry="18" fill="#66A83E"></ellipse><rect x="118" y="150" width="26" height="104" rx="8" fill="url(#tk)"></rect><ellipse cx="130" cy="120" rx="78" ry="62" fill="url(#lf)"></ellipse><ellipse cx="86" cy="140" rx="40" ry="34" fill="#68b23e"></ellipse><ellipse cx="176" cy="140" rx="40" ry="34" fill="#68b23e"></ellipse><rect x="92" y="150" width="76" height="70" rx="12" fill="#8a5a34"></rect><rect x="100" y="158" width="60" height="54" rx="8" fill="#b5824f"></rect><rect x="118" y="176" width="24" height="36" rx="6" fill="#5e3f24"></rect><g>
    <rect x="18" y="18" width="224" height="54" rx="17" fill="#7653B5"></rect>
    <rect x="18" y="18" width="224" height="54" rx="17" fill="none" stroke="#5e3f97" stroke-width="3"></rect>
    <line x1="86" y1="2" x2="78" y2="18" stroke="#5e3f97" stroke-width="4" stroke-linecap="round"></line><line x1="174" y1="2" x2="182" y2="18" stroke="#5e3f97" stroke-width="4" stroke-linecap="round"></line>
    <circle cx="48" cy="46" r="24" fill="#fff"></circle><g fill="#7653B5"><path d="M48 36 q-11 -6 -13 2 v16 q11 -6 13 -1 z"></path><path d="M48 36 q11 -6 13 2 v16 q-11 -6 -13 -1 z"></path></g><line x1="48" y1="37" x2="48" y2="53" stroke="#fff" stroke-width="1.5"></line>
    <text x="157" y="53" font-family="&#39;Baloo 2&#39;,Verdana,sans-serif" font-size="19" font-weight="800" text-anchor="middle" fill="#fff">Story Tree</text>
  </g></svg>