<svg xmlns="http://www.w3.org/2000/svg" viewBox="0 0 260 270" width="260" height="270"><defs><linearGradient id="ct" x1="0" y1="0" x2="0" y2="1"><stop offset="0%" stop-color="#fbe6c8"></stop><stop offset="100%" stop-color="#eccf9c"></stop></linearGradient><linearGradient id="kr" x1="0" y1="0" x2="0" y2="1"><stop offset="0%" stop-color="#F0918A"></stop><stop offset="100%" stop-color="#d85c4b"></stop></linearGradient></defs><ellipse cx="130" cy="250" rx="120" ry="22" fill="#7DBE4E"></ellipse><ellipse cx="130" cy="252" rx="120" ry="18" fill="#66A83E"></ellipse><rect x="84" y="158" width="92" height="96" rx="10" fill="url(#ct)"></rect><rect x="84" y="158" width="92" height="96" rx="10" fill="none" stroke="#d8b988" stroke-width="3"></rect><path d="M74 162 L130 116 L186 162 Z" fill="url(#kr)"></path><rect x="116" y="206" width="30" height="48" rx="5" fill="#0F7377"></rect><rect x="96" y="176" width="24" height="24" rx="5" fill="#a9dede"></rect><rect x="140" y="176" width="24" height="24" rx="5" fill="#a9dede"></rect><g>
    <rect x="18" y="18" width="224" height="54" rx="17" fill="#087F83"></rect>
    <rect x="18" y="18" width="224" height="54" rx="17" fill="none" stroke="#065a5d" stroke-width="3"></rect>
    <line x1="86" y1="2" x2="78" y2="18" stroke="#065a5d" stroke-width="4" stroke-linecap="round"></line><line x1="174" y1="2" x2="182" y2="18" stroke="#065a5d" stroke-width="4" stroke-linecap="round"></line>
    <circle cx="48" cy="46" r="24" fill="#fff"></circle><path d="M48 59 l-10 -10 a5.5 5.5 0 1 1 10 -2 a5.5 5.5 0 1 1 10 2 z" fill="#087F83"></path>
    <text x="157" y="53" font-family="&#39;Baloo 2&#39;,Verdana,sans-serif" font-size="19" font-weight="800" text-anchor="middle" fill="#fff">Kindness Corner</text>
  </g></svg>