<svg xmlns="http://www.w3.org/2000/svg" viewBox="0 0 800 500">
  <defs><linearGradient id="bg" x1="0" y1="0" x2="0" y2="1"><stop offset="0%" stop-color="#FFF8E1"/><stop offset="100%" stop-color="#FFE0B2"/></linearGradient></defs>
  <rect width="800" height="500" fill="url(#bg)" rx="20"/>
  <circle cx="680" cy="70" r="45" fill="#FFD54F" opacity="0.6"/><circle cx="680" cy="70" r="35" fill="#FFECB3"/>
  <rect x="100" y="90" width="600" height="50" rx="14" fill="#E65100" opacity="0.9"/>
  <text x="400" y="122" text-anchor="middle" font-family="sans-serif" font-size="20" font-weight="bold" fill="white">Pagkilala sa mga Salita 🇵🇭</text>
  <!-- Star mascot -->
  <g transform="translate(130, 220)"><circle cx="0" cy="0" r="55" fill="#FFCC80"/><circle cx="-16" cy="-10" r="9" fill="white"/><circle cx="16" cy="-10" r="9" fill="white"/><circle cx="-16" cy="-10" r="4.5" fill="#4E342E"/><circle cx="16" cy="-10" r="4.5" fill="#4E342E"/><path d="M-12 10 Q0 26 12 10" stroke="#4E342E" stroke-width="2.5" fill="none"/><circle cx="-26" cy="4" r="7" fill="#FFAB91" opacity="0.5"/><circle cx="26" cy="4" r="7" fill="#FFAB91" opacity="0.5"/><polygon points="-20,-45 -16,-32 -3,-32 -14,-22 -8,-8 -20,-17 -32,-8 -26,-22 -37,-32 -24,-32" fill="#FFCC80" opacity="0.35"/></g>
  <!-- Word bubbles -->
  <rect x="270" y="120" width="220" height="65" rx="33" fill="white" stroke="#BF360C" stroke-width="2"/><text x="380" y="146" text-anchor="middle" font-family="sans-serif" font-size="19" font-weight="bold" fill="#BF360C">Kamusta!</text><text x="380" y="168" text-anchor="middle" font-family="sans-serif" font-size="11" fill="#795548">Hello!</text>
  <rect x="520" y="200" width="200" height="65" rx="33" fill="#FFF3E0" stroke="#E65100" stroke-width="2"/><text x="620" y="226" text-anchor="middle" font-family="sans-serif" font-size="19" font-weight="bold" fill="#E65100">Salamat</text><text x="620" y="248" text-anchor="middle" font-family="sans-serif" font-size="11" fill="#795548">Thank you</text>
  <rect x="240" y="300" width="180" height="65" rx="33" fill="#FFECB3" stroke="#FF8F00" stroke-width="2"/><text x="330" y="326" text-anchor="middle" font-family="sans-serif" font-size="19" font-weight="bold" fill="#E65100">Paalam</text><text x="330" y="348" text-anchor="middle" font-family="sans-serif" font-size="11" fill="#795548">Goodbye</text>
  <rect x="480" y="370" width="220" height="65" rx="33" fill="#FBE9E7" stroke="#BF360C" stroke-width="2"/><text x="590" y="396" text-anchor="middle" font-family="sans-serif" font-size="19" font-weight="bold" fill="#BF360C">Magandang Araw!</text><text x="590" y="418" text-anchor="middle" font-family="sans-serif" font-size="11" fill="#795548">Good day!</text>
  <text x="400" y="480" text-anchor="middle" font-family="sans-serif" font-size="16" font-weight="bold" fill="#BF360C">Ilang salita ang kaya mong basahin ngayon? ⭐</text>
</svg>