<svg xmlns="http://www.w3.org/2000/svg" xmlns:xlink="http://www.w3.org/1999/xlink" viewBox="0 0 1280 800">
<image href="assets/background/village_home_six_landmarks_master.png" x="0" y="0" width="1280" height="800" preserveAspectRatio="xMidYMid slice"/>
<g fill="#087F83" fill-opacity="0.12" stroke="#FFF7E8" stroke-width="3" font-family="sans-serif" font-size="18" font-weight="700">
<rect x="51" y="184" width="358" height="216" rx="18"/><rect x="461" y="184" width="358" height="216" rx="18"/><rect x="870" y="184" width="358" height="216" rx="18"/>
<rect x="51" y="440" width="358" height="216" rx="18"/><rect x="461" y="440" width="358" height="216" rx="18"/><rect x="870" y="440" width="358" height="216" rx="18"/>
</g>
<g fill="#183B4A" font-family="sans-serif" font-size="20" font-weight="700" text-anchor="middle">
<g><rect x="120" y="355" width="220" height="38" rx="19" fill="#FFF7E8"/><text x="230" y="381">Story Tree</text></g>
<g><rect x="530" y="355" width="220" height="38" rx="19" fill="#FFF7E8"/><text x="640" y="381">Bahay ng Kuwento</text></g>
<g><rect x="939" y="355" width="220" height="38" rx="19" fill="#FFF7E8"/><text x="1049" y="381">Number Market</text></g>
<g><rect x="120" y="611" width="220" height="38" rx="19" fill="#FFF7E8"/><text x="230" y="637">Discovery Lab</text></g>
<g><rect x="530" y="611" width="220" height="38" rx="19" fill="#FFF7E8"/><text x="640" y="637">Heritage Harbor</text></g>
<g><rect x="939" y="611" width="220" height="38" rx="19" fill="#FFF7E8"/><text x="1049" y="637">Kindness Corner</text></g>
</g>
</svg>
