<svg xmlns="http://www.w3.org/2000/svg" width="800" height="450" viewBox="0 0 800 450" role="img" aria-labelledby="title desc"><title id="title">Caring for Natural Resources illustration</title><desc id="desc">A topic-specific illustrated scene for Caring for Natural Resources. It shows visual clues for the lesson objective.</desc><defs><linearGradient id="sky" x1="0" y1="0" x2="0" y2="1"><stop offset="0" stop-color="#FFF1E6"/><stop offset="1" stop-color="#FFFFFF" stop-opacity="0.72"/></linearGradient></defs><rect width="800" height="450" rx="38" fill="url(#sky)"/><line x1="127.0" y1="36.2" x2="127.0" y2="23.7" stroke="#7A4528" stroke-width="2.6" stroke-linecap="round"></line><line x1="152.3" y1="46.6" x2="161.2" y2="37.8" stroke="#7A4528" stroke-width="2.6" stroke-linecap="round"></line><line x1="162.8" y1="72.0" x2="175.3" y2="72.0" stroke="#7A4528" stroke-width="2.6" stroke-linecap="round"></line><line x1="152.3" y1="97.3" x2="161.2" y2="106.2" stroke="#7A4528" stroke-width="2.6" stroke-linecap="round"></line><line x1="127.0" y1="107.8" x2="127.0" y2="120.3" stroke="#7A4528" stroke-width="2.6" stroke-linecap="round"></line><line x1="101.7" y1="97.3" x2="92.8" y2="106.2" stroke="#7A4528" stroke-width="2.6" stroke-linecap="round"></line><line x1="91.2" y1="72.0" x2="78.7" y2="72.0" stroke="#7A4528" stroke-width="2.6" stroke-linecap="round"></line><line x1="101.7" y1="46.6" x2="92.8" y2="37.8" stroke="#7A4528" stroke-width="2.6" stroke-linecap="round"></line><circle cx="127" cy="72" r="19.5" fill="#6CB4A8" stroke="#7A4528" stroke-width="2.6"></circle><circle cx="634.4" cy="72.6" r="14.3" fill="#FFFDF5" stroke="#7A4528" stroke-width="1.9500000000000002"></circle><circle cx="652.6" cy="62.2" r="20.2" fill="#FFFDF5" stroke="#7A4528" stroke-width="1.9500000000000002"></circle><circle cx="671.5" cy="72.6" r="13.7" fill="#FFFDF5" stroke="#7A4528" stroke-width="1.9500000000000002"></circle><rect x="620.1" y="72.0" width="59.8" height="19.5" rx="6.5" fill="#FFFDF5" stroke="#7A4528" stroke-width="1.9500000000000002"></rect><path d="M0 300 Q140 230 290 302 T570 290 T800 304 L800 450 L0 450 Z" fill="#B7DFAE" stroke="#578B55" stroke-width="3" stroke-linecap="round" stroke-linejoin="round"></path><rect x="0" y="340" width="800" height="110" rx="0" fill="#D9EFC7" stroke="none" stroke-width="0"></rect><rect x="331.8" y="184.0" width="126.5" height="92.0" rx="6.8999999999999995" fill="#D9F3FF" stroke="#7A4528" stroke-width="5.75"></rect><line x1="331.8" y1="212.8" x2="458.2" y2="212.8" stroke="#7A4528" stroke-width="4.6" stroke-linecap="round"></line><line x1="351.3" y1="184.0" x2="351.3" y2="212.8" stroke="#7A4528" stroke-width="4.6" stroke-linecap="round"></line><path d="M91.5,119.19999999999999 Q113.5,144.5 104.15,177.5 Q123.4,186.85 136.05,159.9 Q148.15,141.75 169.6,119.75" fill="#6CB4A8" stroke="#7A4528" stroke-width="4.4" stroke-linecap="round" stroke-linejoin="round"></path><line x1="109.1" y1="136.8" x2="119.0" y2="143.4" stroke="#FFFDF5" stroke-width="1.6500000000000001" stroke-linecap="round"></line><line x1="136.1" y1="161.6" x2="147.1" y2="167.1" stroke="#FFFDF5" stroke-width="1.6500000000000001" stroke-linecap="round"></line><rect x="655.0" y="160" width="9.9" height="38.5" rx="2.75" fill="#9A6A45" stroke="#7A4528" stroke-width="1.6500000000000001"></rect><circle cx="660" cy="150.1" r="19.8" fill="#FFB26B" stroke="#7A4528" stroke-width="2.2"></circle><circle cx="644.6" cy="161.1" r="13.8" fill="#FFB26B" stroke="#7A4528" stroke-width="2.2"></circle><circle cx="675.4" cy="161.1" r="13.8" fill="#FFB26B" stroke="#7A4528" stroke-width="2.2"></circle><path d="M220,388.4 Q191.4,369.16 208.56,343.16 Q236.64,343.16 242.88,362.92 Q236.12,379.56 220,388.4 Z" fill="#6CB4A8" stroke="#7A4528" stroke-width="2.6" stroke-linecap="round" stroke-linejoin="round"></path><line x1="205.4" y1="379.6" x2="234.6" y2="352.0" stroke="#7A4528" stroke-width="2.08" stroke-linecap="round"></line><circle cx="612.3" cy="347.5" r="6.2" fill="#F2B58F" stroke="#7A4528" stroke-width="1.2480000000000002"></circle><path d="M602.336,378.312 Q603.168,363.752 612.32,360.008 Q621.4720000000001,363.752 622.3040000000001,378.312 Z" fill="#FFB26B" stroke="#7A4528" stroke-width="1.2480000000000002" stroke-linecap="round" stroke-linejoin="round"></path><line x1="605.7" y1="365.8" x2="622.3" y2="357.5" stroke="#F2B58F" stroke-width="2.4960000000000004" stroke-linecap="round"></line><line x1="619.0" y1="365.8" x2="602.3" y2="357.5" stroke="#F2B58F" stroke-width="2.4960000000000004" stroke-linecap="round"></line><line x1="608.6" y1="377.9" x2="605.7" y2="389.1" stroke="#7A4528" stroke-width="2.08" stroke-linecap="round"></line><line x1="616.1" y1="377.9" x2="619.0" y2="389.1" stroke="#7A4528" stroke-width="2.08" stroke-linecap="round"></line><circle cx="647.7" cy="347.5" r="6.2" fill="#D98D68" stroke="#7A4528" stroke-width="1.2480000000000002"></circle><path d="M637.6959999999999,378.312 Q638.5279999999999,363.752 647.68,360.008 Q656.832,363.752 657.664,378.312 Z" fill="#6CB4A8" stroke="#7A4528" stroke-width="1.2480000000000002" stroke-linecap="round" stroke-linejoin="round"></path><line x1="641.0" y1="365.8" x2="637.7" y2="357.5" stroke="#D98D68" stroke-width="2.4960000000000004" stroke-linecap="round"></line><line x1="654.3" y1="365.8" x2="657.7" y2="357.5" stroke="#D98D68" stroke-width="2.4960000000000004" stroke-linecap="round"></line><line x1="643.9" y1="377.9" x2="641.0" y2="389.1" stroke="#7A4528" stroke-width="2.08" stroke-linecap="round"></line><line x1="651.4" y1="377.9" x2="654.3" y2="389.1" stroke="#7A4528" stroke-width="2.08" stroke-linecap="round"></line><circle cx="104" cy="116" r="6" fill="#6CB4A8" stroke="none" stroke-width="0"></circle><circle cx="187" cy="163" r="7" fill="#FFB26B" stroke="none" stroke-width="0"></circle><circle cx="270" cy="210" r="8" fill="#6CB4A8" stroke="none" stroke-width="0"></circle><line x1="735" y1="319.0" x2="735" y2="367.7" stroke="#7A4528" stroke-width="2.1" stroke-linecap="round"></line><path d="M735.84,321.9 Q750.96,317.7 762.3,324.84 L762.3,340.8 Q749.28,333.66 735.84,338.28 Z" fill="#FFB26B" stroke="#7A4528" stroke-width="1.68" stroke-linecap="round" stroke-linejoin="round"></path><polygon points="743.8,324.1 745.5,328.0 749.7,328.4 746.5,331.2 747.4,335.3 743.8,333.1 740.2,335.3 741.2,331.2 737.9,328.4 742.2,328.0" fill="#FFD66B" stroke="#7A4528" stroke-width="0.588" stroke-linejoin="round"></polygon></svg>
