<svg xmlns="http://www.w3.org/2000/svg" width="800" height="450" viewBox="0 0 800 450" role="img" aria-labelledby="title desc"><title id="title">Magagalang na Pananalita na Angkop sa Sitwasyon illustration</title><desc id="desc">A topic-specific illustrated scene for Magagalang na Pananalita na Angkop sa Sitwasyon. It shows visual clues for the lesson objective.</desc><defs><linearGradient id="sky" x1="0" y1="0" x2="0" y2="1"><stop offset="0" stop-color="#FFF0F5"/><stop offset="1" stop-color="#FFFFFF" stop-opacity="0.72"/></linearGradient></defs><rect width="800" height="450" rx="38" fill="url(#sky)"/><line x1="92.0" y1="36.2" x2="92.0" y2="23.7" stroke="#7A3152" stroke-width="2.6" stroke-linecap="round"></line><line x1="117.3" y1="46.6" x2="126.2" y2="37.8" stroke="#7A3152" stroke-width="2.6" stroke-linecap="round"></line><line x1="127.8" y1="72.0" x2="140.3" y2="72.0" stroke="#7A3152" stroke-width="2.6" stroke-linecap="round"></line><line x1="117.3" y1="97.3" x2="126.2" y2="106.2" stroke="#7A3152" stroke-width="2.6" stroke-linecap="round"></line><line x1="92.0" y1="107.8" x2="92.0" y2="120.3" stroke="#7A3152" stroke-width="2.6" stroke-linecap="round"></line><line x1="66.7" y1="97.3" x2="57.8" y2="106.2" stroke="#7A3152" stroke-width="2.6" stroke-linecap="round"></line><line x1="56.2" y1="72.0" x2="43.7" y2="72.0" stroke="#7A3152" stroke-width="2.6" stroke-linecap="round"></line><line x1="66.7" y1="46.6" x2="57.8" y2="37.8" stroke="#7A3152" stroke-width="2.6" stroke-linecap="round"></line><circle cx="92" cy="72" r="19.5" fill="#8EC6FF" stroke="#7A3152" stroke-width="2.6"></circle><circle cx="634.4" cy="72.6" r="14.3" fill="#FFFDF5" stroke="#7A3152" stroke-width="1.9500000000000002"></circle><circle cx="652.6" cy="62.2" r="20.2" fill="#FFFDF5" stroke="#7A3152" stroke-width="1.9500000000000002"></circle><circle cx="671.5" cy="72.6" r="13.7" fill="#FFFDF5" stroke="#7A3152" stroke-width="1.9500000000000002"></circle><rect x="620.1" y="72.0" width="59.8" height="19.5" rx="6.5" fill="#FFFDF5" stroke="#7A3152" stroke-width="1.9500000000000002"></rect><path d="M0 320 Q170 240 330 315 T620 300 T800 320 L800 450 L0 450 Z" fill="#CFE6C4" stroke="#7AA46A" stroke-width="3" stroke-linecap="round" stroke-linejoin="round"></path><rect x="0" y="340" width="800" height="110" rx="0" fill="#F8DDB0" stroke="none" stroke-width="0"></rect><polygon points="328.3,230 395,170.2 461.7,230" fill="#F6A6C1" stroke="#7A3152" stroke-width="4.6" stroke-linejoin="round"></polygon><rect x="340.9" y="230" width="108.1" height="74.8" rx="5.75" fill="#FFFDF5" stroke="#7A3152" stroke-width="4.6"></rect><rect x="383.5" y="262.2" width="23.0" height="42.5" rx="3.4499999999999997" fill="#9A6A45" stroke="#7A3152" stroke-width="3.4499999999999997"></rect><rect x="355.9" y="246.1" width="20.7" height="20.7" rx="2.3" fill="#8DD3E8" stroke="#7A3152" stroke-width="3.4499999999999997"></rect><rect x="413.4" y="246.1" width="20.7" height="20.7" rx="2.3" fill="#8DD3E8" stroke="#7A3152" stroke-width="3.4499999999999997"></rect><rect x="377.8" y="253.0" width="34.5" height="28.7" rx="3.4499999999999997" fill="#8EC6FF" stroke="#7A3152" stroke-width="3.4499999999999997"></rect><path d="M102.5,161.0 Q105.8,136.25 124.5,147.25 L128.35,161.0 Q114.6,156.6 102.5,161.0 Z" fill="#8EC6FF" stroke="#7A3152" stroke-width="2.2" stroke-linecap="round" stroke-linejoin="round"></path><path d="M157.5,161.0 Q154.2,136.25 135.5,147.25 L131.65,161.0 Q145.4,156.6 157.5,161.0 Z" fill="#FFD66B" stroke="#7A3152" stroke-width="2.2" stroke-linecap="round" stroke-linejoin="round"></path><circle cx="130" cy="152.8" r="7.2" fill="#FFD66B" stroke="#7A3152" stroke-width="1.6500000000000001"></circle><path d="M629.75,141.3 Q629.75,131.4 639.65,131.4 L683.1,131.4 Q693.0,131.4 693.0,141.3 L693.0,165.5 Q693.0,175.4 683.1,175.4 L664.4,175.4 L655.6,187.5 L657.8,175.4 L639.65,175.4 Q629.75,175.4 629.75,165.5 Z" fill="#FFFDF5" stroke="#7A3152" stroke-width="2.2" stroke-linecap="round" stroke-linejoin="round"></path><text x="661.1" y="164.4" font-family="sans-serif" font-size="16" font-weight="700" text-anchor="middle" fill="#7A3152">Hi!</text><circle cx="202.3" cy="347.5" r="6.2" fill="#F2B58F" stroke="#7A3152" stroke-width="1.2480000000000002"></circle><path d="M192.33599999999998,378.312 Q193.168,363.752 202.32,360.008 Q211.47199999999998,363.752 212.304,378.312 Z" fill="#8EC6FF" stroke="#7A3152" stroke-width="1.2480000000000002" stroke-linecap="round" stroke-linejoin="round"></path><line x1="195.7" y1="365.8" x2="212.3" y2="357.5" stroke="#F2B58F" stroke-width="2.4960000000000004" stroke-linecap="round"></line><line x1="209.0" y1="365.8" x2="192.3" y2="357.5" stroke="#F2B58F" stroke-width="2.4960000000000004" stroke-linecap="round"></line><line x1="198.6" y1="377.9" x2="195.7" y2="389.1" stroke="#7A3152" stroke-width="2.08" stroke-linecap="round"></line><line x1="206.1" y1="377.9" x2="209.0" y2="389.1" stroke="#7A3152" stroke-width="2.08" stroke-linecap="round"></line><circle cx="237.7" cy="347.5" r="6.2" fill="#D98D68" stroke="#7A3152" stroke-width="1.2480000000000002"></circle><path d="M227.696,378.312 Q228.52800000000002,363.752 237.68,360.008 Q246.832,363.752 247.66400000000002,378.312 Z" fill="#F6A6C1" stroke="#7A3152" stroke-width="1.2480000000000002" stroke-linecap="round" stroke-linejoin="round"></path><line x1="231.0" y1="365.8" x2="227.7" y2="357.5" stroke="#D98D68" stroke-width="2.4960000000000004" stroke-linecap="round"></line><line x1="244.3" y1="365.8" x2="247.7" y2="357.5" stroke="#D98D68" stroke-width="2.4960000000000004" stroke-linecap="round"></line><line x1="233.9" y1="377.9" x2="231.0" y2="389.1" stroke="#7A3152" stroke-width="2.08" stroke-linecap="round"></line><line x1="241.4" y1="377.9" x2="244.3" y2="389.1" stroke="#7A3152" stroke-width="2.08" stroke-linecap="round"></line><path d="M630,343.16 Q612.32,336.92 597.76,345.24 L597.76,384.76 Q614.4,377.48 630,385.8 Z" fill="#FFFDF5" stroke="#7A3152" stroke-width="2.08" stroke-linecap="round" stroke-linejoin="round"></path><path d="M630,343.16 Q647.68,336.92 662.24,345.24 L662.24,384.76 Q645.6,377.48 630,385.8 Z" fill="#FFFDF5" stroke="#7A3152" stroke-width="2.08" stroke-linecap="round" stroke-linejoin="round"></path><line x1="630" y1="343.2" x2="630" y2="385.8" stroke="#F6A6C1" stroke-width="2.08" stroke-linecap="round"></line><line x1="608.2" y1="358.8" x2="622.7" y2="355.6" stroke="#F6A6C1" stroke-width="1.56" stroke-linecap="round"></line><line x1="637.3" y1="355.6" x2="651.8" y2="358.8" stroke="#F6A6C1" stroke-width="1.56" stroke-linecap="round"></line><circle cx="605" cy="168" r="7" fill="#8EC6FF" stroke="none" stroke-width="0"></circle><circle cx="688" cy="110" r="8" fill="#F6A6C1" stroke="none" stroke-width="0"></circle><circle cx="61" cy="157" r="4" fill="#8EC6FF" stroke="none" stroke-width="0"></circle><circle cx="144" cy="204" r="5" fill="#F6A6C1" stroke="none" stroke-width="0"></circle><line x1="735" y1="319.0" x2="735" y2="367.7" stroke="#7A3152" stroke-width="2.1" stroke-linecap="round"></line><path d="M735.84,321.9 Q750.96,317.7 762.3,324.84 L762.3,340.8 Q749.28,333.66 735.84,338.28 Z" fill="#F6A6C1" stroke="#7A3152" stroke-width="1.68" stroke-linecap="round" stroke-linejoin="round"></path><polygon points="743.8,324.1 745.5,328.0 749.7,328.4 746.5,331.2 747.4,335.3 743.8,333.1 740.2,335.3 741.2,331.2 737.9,328.4 742.2,328.0" fill="#FFD66B" stroke="#7A3152" stroke-width="0.588" stroke-linejoin="round"></polygon></svg>
