<svg xmlns="http://www.w3.org/2000/svg" width="800" height="450" viewBox="0 0 800 450" role="img" aria-labelledby="svg-title-mathematics-g3-m01-d07-visual svg-desc-mathematics-g3-m01-d07-visual">
  <title id="svg-title-mathematics-g3-m01-d07-visual">Lesson visual: The 100-Place Parade</title>
  <desc id="svg-desc-mathematics-g3-m01-d07-visual">Illustration for The 100-Place Parade. Identify ordinal positions through 100th from a stated start and direction. Tap each example and read the position word. It shows: 1st, 25th, 100th.</desc>
<defs><linearGradient id="sky" x1="0" y1="0" x2="0" y2="1"><stop offset="0" stop-color="#EAF6FF"/><stop offset="1" stop-color="#FFFFFF" stop-opacity="0.72"/></linearGradient></defs><rect width="800" height="450" rx="38" fill="url(#sky)"/><line x1="127.0" y1="36.2" x2="127.0" y2="23.7" stroke="#315A7D" stroke-width="2.6" stroke-linecap="round"></line><line x1="152.3" y1="46.6" x2="161.2" y2="37.8" stroke="#315A7D" stroke-width="2.6" stroke-linecap="round"></line><line x1="162.8" y1="72.0" x2="175.3" y2="72.0" stroke="#315A7D" stroke-width="2.6" stroke-linecap="round"></line><line x1="152.3" y1="97.3" x2="161.2" y2="106.2" stroke="#315A7D" stroke-width="2.6" stroke-linecap="round"></line><line x1="127.0" y1="107.8" x2="127.0" y2="120.3" stroke="#315A7D" stroke-width="2.6" stroke-linecap="round"></line><line x1="101.7" y1="97.3" x2="92.8" y2="106.2" stroke="#315A7D" stroke-width="2.6" stroke-linecap="round"></line><line x1="91.2" y1="72.0" x2="78.7" y2="72.0" stroke="#315A7D" stroke-width="2.6" stroke-linecap="round"></line><line x1="101.7" y1="46.6" x2="92.8" y2="37.8" stroke="#315A7D" stroke-width="2.6" stroke-linecap="round"></line><circle cx="127" cy="72" r="19.5" fill="#F2C14E" stroke="#315A7D" stroke-width="2.6"></circle><path d="M0 320 Q170 240 330 315 T620 300 T800 320 L800 450 L0 450 Z" fill="#CFE6C4" stroke="#7AA46A" stroke-width="3" stroke-linecap="round" stroke-linejoin="round"></path><rect x="0" y="340" width="800" height="110" rx="0" fill="#F8DDB0" stroke="none" stroke-width="0"></rect><g filter="drop-shadow(0 4px 8px rgba(0,0,0,0.12))"><circle cx="372.5" cy="246.2" r="27.5" fill="#80B1D3" stroke="#315A7D" stroke-width="5.0"></circle><rect x="416.2" y="217.5" width="56.2" height="56.2" rx="6.25" fill="#FFFDF5" stroke="#315A7D" stroke-width="5.0"></rect><polygon points="350.0,325.0 385.0,266.25 420.0,325.0" fill="#F2C14E" stroke="#315A7D" stroke-width="5.0" stroke-linejoin="round"></polygon></g><polygon points="155.0,225.6 161.5,241.1 178.2,242.5 165.5,253.4 169.3,269.7 155.0,261.0 140.7,269.7 144.5,253.4 131.8,242.5 148.5,241.1" fill="#F2C14E" stroke="#315A7D" stroke-width="2.32" stroke-linejoin="round"></polygon><line x1="627.0" y1="267.0" x2="693.0" y2="243.0" stroke="#80B1D3" stroke-width="4.2" stroke-linecap="round"></line><circle cx="627.0" cy="267.0" r="5.4" fill="#F2C14E" stroke="#315A7D" stroke-width="1.7999999999999998"></circle><circle cx="693.0" cy="243.0" r="5.4" fill="#F2C14E" stroke="#315A7D" stroke-width="1.7999999999999998"></circle><line x1="228.4" y1="381.8" x2="250" y2="348.2" stroke="#315A7D" stroke-width="2.88" stroke-linecap="round"></line><line x1="250" y1="348.2" x2="274.0" y2="381.8" stroke="#315A7D" stroke-width="2.88" stroke-linecap="round"></line><path d="M240.4,366.92 Q250,357.8 260.08,366.92" fill="none" stroke="#F2C14E" stroke-width="1.92" stroke-linecap="round" stroke-linejoin="round"></path><rect x="535.4" y="359.7" width="69.1" height="10.6" rx="2.4" fill="#FFD66B" stroke="#315A7D" stroke-width="1.92"></rect><line x1="543.6" y1="359.7" x2="543.6" y2="367.4" stroke="#315A7D" stroke-width="1.44" stroke-linecap="round"></line><line x1="552.2" y1="359.7" x2="552.2" y2="367.4" stroke="#315A7D" stroke-width="1.44" stroke-linecap="round"></line><line x1="560.9" y1="359.7" x2="560.9" y2="367.4" stroke="#315A7D" stroke-width="1.44" stroke-linecap="round"></line><line x1="569.5" y1="359.7" x2="569.5" y2="367.4" stroke="#315A7D" stroke-width="1.44" stroke-linecap="round"></line><line x1="578.2" y1="359.7" x2="578.2" y2="367.4" stroke="#315A7D" stroke-width="1.44" stroke-linecap="round"></line><line x1="586.8" y1="359.7" x2="586.8" y2="367.4" stroke="#315A7D" stroke-width="1.44" stroke-linecap="round"></line><line x1="595.4" y1="359.7" x2="595.4" y2="367.4" stroke="#315A7D" stroke-width="1.44" stroke-linecap="round"></line><circle cx="203" cy="198" r="5" fill="#F2C14E" stroke="none" stroke-width="0"></circle><circle cx="286" cy="140" r="6" fill="#80B1D3" stroke="none" stroke-width="0"></circle><circle cx="369" cy="187" r="7" fill="#F2C14E" stroke="none" stroke-width="0"></circle><circle cx="452" cy="129" r="8" fill="#80B1D3" stroke="none" stroke-width="0"></circle><circle cx="535" cy="176" r="4" fill="#F2C14E" stroke="none" stroke-width="0"></circle><circle cx="618" cy="118" r="5" fill="#80B1D3" stroke="none" stroke-width="0"></circle><line x1="735" y1="319.0" x2="735" y2="367.7" stroke="#315A7D" stroke-width="2.1" stroke-linecap="round"></line><path d="M735.84,321.9 Q750.96,317.7 762.3,324.84 L762.3,340.8 Q749.28,333.66 735.84,338.28 Z" fill="#80B1D3" stroke="#315A7D" stroke-width="1.68" stroke-linecap="round" stroke-linejoin="round"></path><polygon points="743.8,324.1 745.5,328.0 749.7,328.4 746.5,331.2 747.4,335.3 743.8,333.1 740.2,335.3 741.2,331.2 737.9,328.4 742.2,328.0" fill="#FFD66B" stroke="#315A7D" stroke-width="0.588" stroke-linejoin="round"></polygon></svg>
