<svg xmlns="http://www.w3.org/2000/svg" width="800" height="450" viewBox="0 0 800 450" role="img" aria-labelledby="svg-title-mathematics-g3-q3-w07-d03-visual svg-desc-mathematics-g3-q3-w07-d03-visual">
  <title id="svg-title-mathematics-g3-q3-w07-d03-visual">Lesson visual: Pattern Path</title>
  <desc id="svg-desc-mathematics-g3-q3-w07-d03-visual">Illustration for Pattern Path. Find missing terms and explain repeating or increasing patterns. Tap each sequence and look for what repeats or changes. It shows: red, blue, red, blue, 2, 4, 6, 8, triangle, square, triangle, circle, star, circle, star.</desc>
<defs><linearGradient id="sky" x1="0" y1="0" x2="0" y2="1"><stop offset="0" stop-color="#EAF6FF"/><stop offset="1" stop-color="#FFFFFF" stop-opacity="0.72"/></linearGradient></defs><rect width="800" height="450" rx="38" fill="url(#sky)"/><line x1="162.0" y1="36.2" x2="162.0" y2="23.7" stroke="#315A7D" stroke-width="2.6" stroke-linecap="round"></line><line x1="187.3" y1="46.6" x2="196.2" y2="37.8" stroke="#315A7D" stroke-width="2.6" stroke-linecap="round"></line><line x1="197.8" y1="72.0" x2="210.3" y2="72.0" stroke="#315A7D" stroke-width="2.6" stroke-linecap="round"></line><line x1="187.3" y1="97.3" x2="196.2" y2="106.2" stroke="#315A7D" stroke-width="2.6" stroke-linecap="round"></line><line x1="162.0" y1="107.8" x2="162.0" y2="120.3" stroke="#315A7D" stroke-width="2.6" stroke-linecap="round"></line><line x1="136.7" y1="97.3" x2="127.8" y2="106.2" stroke="#315A7D" stroke-width="2.6" stroke-linecap="round"></line><line x1="126.2" y1="72.0" x2="113.7" y2="72.0" stroke="#315A7D" stroke-width="2.6" stroke-linecap="round"></line><line x1="136.7" y1="46.6" x2="127.8" y2="37.8" stroke="#315A7D" stroke-width="2.6" stroke-linecap="round"></line><circle cx="162" cy="72" r="19.5" fill="#F2C14E" stroke="#315A7D" stroke-width="2.6"></circle><circle cx="634.4" cy="72.6" r="14.3" fill="#FFFDF5" stroke="#315A7D" stroke-width="1.9500000000000002"></circle><circle cx="652.6" cy="62.2" r="20.2" fill="#FFFDF5" stroke="#315A7D" stroke-width="1.9500000000000002"></circle><circle cx="671.5" cy="72.6" r="13.7" fill="#FFFDF5" stroke="#315A7D" stroke-width="1.9500000000000002"></circle><rect x="620.1" y="72.0" width="59.8" height="19.5" rx="6.5" fill="#FFFDF5" stroke="#315A7D" stroke-width="1.9500000000000002"></rect><line x1="634.4" y1="101.2" x2="629.2" y2="114.2" stroke="#65A9D6" stroke-width="2.6" stroke-linecap="round"></line><line x1="650.0" y1="101.2" x2="644.8" y2="114.2" stroke="#65A9D6" stroke-width="2.6" stroke-linecap="round"></line><line x1="665.6" y1="101.2" x2="660.4" y2="114.2" stroke="#65A9D6" stroke-width="2.6" stroke-linecap="round"></line><path d="M0 320 Q170 240 330 315 T620 300 T800 320 L800 450 L0 450 Z" fill="#CFE6C4" stroke="#7AA46A" stroke-width="3" stroke-linecap="round" stroke-linejoin="round"></path><rect x="0" y="340" width="800" height="110" rx="0" fill="#F8DDB0" stroke="none" stroke-width="0"></rect><g filter="drop-shadow(0 4px 8px rgba(0,0,0,0.12))"><polygon points="400.0,248.0 412.5,277.8 444.7,280.5 420.2,301.6 427.6,333.1 400.0,316.3 372.4,333.1 379.8,301.6 355.3,280.5 387.5,277.8" fill="#80B1D3" stroke="#315A7D" stroke-width="4.48" stroke-linejoin="round"></polygon></g><polygon points="130.0,246.9 136.1,261.5 152.0,262.9 139.9,273.2 143.6,288.7 130.0,280.4 116.4,288.7 120.1,273.2 108.0,262.9 123.9,261.5" fill="#F2C14E" stroke="#315A7D" stroke-width="2.2" stroke-linejoin="round"></polygon><circle cx="680" cy="246.9" r="8.2" fill="#F2B58F" stroke="#315A7D" stroke-width="1.6500000000000001"></circle><path d="M666.8,287.6 Q667.9,268.35 680,263.4 Q692.1,268.35 693.2,287.6 Z" fill="#80B1D3" stroke="#315A7D" stroke-width="1.6500000000000001" stroke-linecap="round" stroke-linejoin="round"></path><line x1="671.2" y1="271.1" x2="693.2" y2="260.1" stroke="#F2B58F" stroke-width="3.3000000000000003" stroke-linecap="round"></line><line x1="688.8" y1="271.1" x2="666.8" y2="260.1" stroke="#F2B58F" stroke-width="3.3000000000000003" stroke-linecap="round"></line><line x1="675.0" y1="287.1" x2="671.2" y2="301.9" stroke="#315A7D" stroke-width="2.75" stroke-linecap="round"></line><line x1="685.0" y1="287.1" x2="688.8" y2="301.9" stroke="#315A7D" stroke-width="2.75" stroke-linecap="round"></line><polygon points="270.0,119.8 275.4,132.6 289.2,133.8 278.7,142.8 281.8,156.3 270.0,149.1 258.2,156.3 261.3,142.8 250.8,133.8 264.6,132.6" fill="#F2C14E" stroke="#315A7D" stroke-width="1.92" stroke-linejoin="round"></polygon><line x1="579.8" y1="140" x2="615.8" y2="140" stroke="#80B1D3" stroke-width="3.36" stroke-linecap="round"></line><polygon points="611.52,131.36 626.4,140 611.52,148.64" fill="#80B1D3" stroke="#315A7D" stroke-width="1.44" stroke-linejoin="round"></polygon><circle cx="502" cy="139" r="4" fill="#F2C14E" stroke="none" stroke-width="0"></circle><circle cx="585" cy="186" r="5" fill="#80B1D3" stroke="none" stroke-width="0"></circle><circle cx="668" cy="128" r="6" fill="#F2C14E" stroke="none" stroke-width="0"></circle><circle cx="751" cy="175" r="7" fill="#80B1D3" stroke="none" stroke-width="0"></circle><circle cx="124" cy="117" r="8" fill="#F2C14E" stroke="none" stroke-width="0"></circle><line x1="735" y1="319.0" x2="735" y2="367.7" stroke="#315A7D" stroke-width="2.1" stroke-linecap="round"></line><path d="M735.84,321.9 Q750.96,317.7 762.3,324.84 L762.3,340.8 Q749.28,333.66 735.84,338.28 Z" fill="#80B1D3" stroke="#315A7D" stroke-width="1.68" stroke-linecap="round" stroke-linejoin="round"></path><polygon points="743.8,324.1 745.5,328.0 749.7,328.4 746.5,331.2 747.4,335.3 743.8,333.1 740.2,335.3 741.2,331.2 737.9,328.4 742.2,328.0" fill="#FFD66B" stroke="#315A7D" stroke-width="0.588" stroke-linejoin="round"></polygon></svg>
