<svg xmlns="http://www.w3.org/2000/svg" width="800" height="450" viewBox="0 0 800 450" role="img" aria-labelledby="title desc"><title id="title">Life Around Us · Q2 W03 D02 illustration</title><desc id="desc">A topic-specific illustrated scene for Life Around Us · Q2 W03 D02. It shows visual clues for the lesson objective.</desc><defs><linearGradient id="sky" x1="0" y1="0" x2="0" y2="1"><stop offset="0" stop-color="#F4FFE4"/><stop offset="1" stop-color="#FFFFFF" stop-opacity="0.72"/></linearGradient></defs><rect width="800" height="450" rx="38" fill="url(#sky)"/><line x1="92.0" y1="36.2" x2="92.0" y2="23.7" stroke="#39734A" stroke-width="2.6" stroke-linecap="round"></line><line x1="117.3" y1="46.6" x2="126.2" y2="37.8" stroke="#39734A" stroke-width="2.6" stroke-linecap="round"></line><line x1="127.8" y1="72.0" x2="140.3" y2="72.0" stroke="#39734A" stroke-width="2.6" stroke-linecap="round"></line><line x1="117.3" y1="97.3" x2="126.2" y2="106.2" stroke="#39734A" stroke-width="2.6" stroke-linecap="round"></line><line x1="92.0" y1="107.8" x2="92.0" y2="120.3" stroke="#39734A" stroke-width="2.6" stroke-linecap="round"></line><line x1="66.7" y1="97.3" x2="57.8" y2="106.2" stroke="#39734A" stroke-width="2.6" stroke-linecap="round"></line><line x1="56.2" y1="72.0" x2="43.7" y2="72.0" stroke="#39734A" stroke-width="2.6" stroke-linecap="round"></line><line x1="66.7" y1="46.6" x2="57.8" y2="37.8" stroke="#39734A" stroke-width="2.6" stroke-linecap="round"></line><circle cx="92" cy="72" r="19.5" fill="#F28E8E" stroke="#39734A" stroke-width="2.6"></circle><circle cx="634.4" cy="72.6" r="14.3" fill="#FFFDF5" stroke="#39734A" stroke-width="1.9500000000000002"></circle><circle cx="652.6" cy="62.2" r="20.2" fill="#FFFDF5" stroke="#39734A" stroke-width="1.9500000000000002"></circle><circle cx="671.5" cy="72.6" r="13.7" fill="#FFFDF5" stroke="#39734A" stroke-width="1.9500000000000002"></circle><rect x="620.1" y="72.0" width="59.8" height="19.5" rx="6.5" fill="#FFFDF5" stroke="#39734A" stroke-width="1.9500000000000002"></rect><line x1="634.4" y1="101.2" x2="629.2" y2="114.2" stroke="#65A9D6" stroke-width="2.6" stroke-linecap="round"></line><line x1="650.0" y1="101.2" x2="644.8" y2="114.2" stroke="#65A9D6" stroke-width="2.6" stroke-linecap="round"></line><line x1="665.6" y1="101.2" x2="660.4" y2="114.2" stroke="#65A9D6" stroke-width="2.6" stroke-linecap="round"></line><path d="M0 300 Q140 230 290 302 T570 290 T800 304 L800 450 L0 450 Z" fill="#B7DFAE" stroke="#578B55" stroke-width="3" stroke-linecap="round" stroke-linejoin="round"></path><rect x="0" y="340" width="800" height="110" rx="0" fill="#D9EFC7" stroke="none" stroke-width="0"></rect><circle cx="400" cy="248.0" r="16.8" fill="#F2B58F" stroke="#39734A" stroke-width="3.3600000000000003"></circle><path d="M373.12,330.84000000000003 Q375.36,291.64 400,281.56 Q424.64,291.64 426.88,330.84000000000003 Z" fill="#B3DE69" stroke="#39734A" stroke-width="3.3600000000000003" stroke-linecap="round" stroke-linejoin="round"></path><line x1="382.1" y1="297.2" x2="426.9" y2="274.8" stroke="#F2B58F" stroke-width="6.720000000000001" stroke-linecap="round"></line><line x1="417.9" y1="297.2" x2="373.1" y2="274.8" stroke="#F2B58F" stroke-width="6.720000000000001" stroke-linecap="round"></line><line x1="389.9" y1="329.7" x2="382.1" y2="360.0" stroke="#39734A" stroke-width="5.6000000000000005" stroke-linecap="round"></line><line x1="410.1" y1="329.7" x2="417.9" y2="360.0" stroke="#39734A" stroke-width="5.6000000000000005" stroke-linecap="round"></line><rect x="125.0" y="270" width="9.9" height="38.5" rx="2.75" fill="#9A6A45" stroke="#39734A" stroke-width="1.6500000000000001"></rect><circle cx="130" cy="260.1" r="19.8" fill="#F28E8E" stroke="#39734A" stroke-width="2.2"></circle><circle cx="114.6" cy="271.1" r="13.8" fill="#F28E8E" stroke="#39734A" stroke-width="2.2"></circle><circle cx="145.4" cy="271.1" r="13.8" fill="#F28E8E" stroke="#39734A" stroke-width="2.2"></circle><line x1="130" y1="307.4" x2="130" y2="322.2" stroke="#39734A" stroke-width="2.2" stroke-linecap="round"></line><path d="M130,317.3 Q110.75,303.0 114.6,293.1 Q127.8,294.75 130,309.6 Z" fill="#B3DE69" stroke="#39734A" stroke-width="1.6500000000000001" stroke-linecap="round" stroke-linejoin="round"></path><path d="M680,239.75 Q656.9,267.8 658.0,281.0 Q660.2,300.25 680,300.25 Q699.8,300.25 702.0,281.0 Q703.1,267.8 680,239.75 Z" fill="#B3DE69" stroke="#39734A" stroke-width="2.2" stroke-linecap="round" stroke-linejoin="round"></path><circle cx="270" cy="130.4" r="13.0" fill="#B3DE69" stroke="#39734A" stroke-width="1.92"></circle><circle cx="259.4" cy="119.8" r="6.7" fill="#B3DE69" stroke="#39734A" stroke-width="1.92"></circle><circle cx="280.6" cy="119.8" r="6.7" fill="#B3DE69" stroke="#39734A" stroke-width="1.92"></circle><ellipse cx="270" cy="143.8" rx="6.2" ry="3.8" fill="#FFFDF5" stroke="#39734A" stroke-width="1.44"></ellipse><line x1="258.5" y1="143.8" x2="258.5" y2="162.1" stroke="#39734A" stroke-width="1.92" stroke-linecap="round"></line><line x1="281.5" y1="143.8" x2="281.5" y2="162.1" stroke="#39734A" stroke-width="1.92" stroke-linecap="round"></line><line x1="600.0" y1="113.6" x2="600.0" y2="104.4" stroke="#39734A" stroke-width="1.92" stroke-linecap="round"></line><line x1="618.7" y1="121.3" x2="625.3" y2="114.7" stroke="#39734A" stroke-width="1.92" stroke-linecap="round"></line><line x1="626.4" y1="140.0" x2="635.6" y2="140.0" stroke="#39734A" stroke-width="1.92" stroke-linecap="round"></line><line x1="618.7" y1="158.7" x2="625.3" y2="165.3" stroke="#39734A" stroke-width="1.92" stroke-linecap="round"></line><line x1="600.0" y1="166.4" x2="600.0" y2="175.6" stroke="#39734A" stroke-width="1.92" stroke-linecap="round"></line><line x1="581.3" y1="158.7" x2="574.7" y2="165.3" stroke="#39734A" stroke-width="1.92" stroke-linecap="round"></line><line x1="573.6" y1="140.0" x2="564.4" y2="140.0" stroke="#39734A" stroke-width="1.92" stroke-linecap="round"></line><line x1="581.3" y1="121.3" x2="574.7" y2="114.7" stroke="#39734A" stroke-width="1.92" stroke-linecap="round"></line><circle cx="600" cy="140" r="14.4" fill="#B3DE69" stroke="#39734A" stroke-width="1.92"></circle><circle cx="522" cy="120" r="4" fill="#F28E8E" stroke="none" stroke-width="0"></circle><circle cx="605" cy="167" r="5" fill="#B3DE69" stroke="none" stroke-width="0"></circle><circle cx="688" cy="214" r="6" fill="#F28E8E" stroke="none" stroke-width="0"></circle><circle cx="61" cy="156" r="7" fill="#B3DE69" stroke="none" stroke-width="0"></circle><circle cx="144" cy="203" r="8" fill="#F28E8E" stroke="none" stroke-width="0"></circle><line x1="735" y1="319.0" x2="735" y2="367.7" stroke="#39734A" stroke-width="2.1" stroke-linecap="round"></line><path d="M735.84,321.9 Q750.96,317.7 762.3,324.84 L762.3,340.8 Q749.28,333.66 735.84,338.28 Z" fill="#B3DE69" stroke="#39734A" stroke-width="1.68" stroke-linecap="round" stroke-linejoin="round"></path><polygon points="743.8,324.1 745.5,328.0 749.7,328.4 746.5,331.2 747.4,335.3 743.8,333.1 740.2,335.3 741.2,331.2 737.9,328.4 742.2,328.0" fill="#FFD66B" stroke="#39734A" stroke-width="0.588" stroke-linejoin="round"></polygon></svg>
