<svg xmlns="http://www.w3.org/2000/svg" viewBox="0 0 200 200" width="200" height="200">
  <defs><linearGradient id="bdmira" x1="0" y1="0" x2="0" y2="1"><stop offset="0%" stop-color="#FBFBF7"></stop><stop offset="100%" stop-color="#EDEBE4"></stop></linearGradient><linearGradient id="hdmira" x1="0" y1="0" x2="0" y2="1"><stop offset="0%" stop-color="#FBFBF7"></stop><stop offset="100%" stop-color="#EDEBE4"></stop></linearGradient></defs>
  <ellipse cx="100" cy="186" rx="62" ry="10" fill="#183B4A" opacity=".14"></ellipse>
  
  <path d="M150 168 q40 -6 34 -44 q-3 -24 -22 -22 q16 6 12 26 q-4 26 -30 30 z" fill="url(#bdmira)"></path>
  
  <ellipse cx="100" cy="150" rx="50" ry="44" fill="url(#bdmira)"></ellipse>
  <ellipse cx="100" cy="158" rx="30" ry="30" fill="#FFFFFF"></ellipse>
  <path d="M52 118 q30 -20 50 6 q-8 30 -50 24 z" fill="#E8722C" opacity=".9"></path><path d="M150 120 q-6 30 -30 30 q-4 -30 30 -30z" fill="#3a3330" opacity=".85"></path>
  
  <ellipse cx="80" cy="184" rx="15" ry="11" fill="url(#bdmira)"></ellipse>
  <ellipse cx="120" cy="184" rx="15" ry="11" fill="url(#bdmira)"></ellipse>
  <ellipse cx="80" cy="186" rx="9" ry="6" fill="#FFFFFF"></ellipse>
  <ellipse cx="120" cy="186" rx="9" ry="6" fill="#FFFFFF"></ellipse>
  <path d="M64 116 q36 22 72 0 l4 12 q-40 24 -80 0 z" fill="#7653B5"></path><path d="M132 124 l14 20 l-12 4 l-8 -20z" fill="#5e3f97"></path><g transform="translate(64,150)"><rect x="-4" y="0" width="40" height="28" rx="3" fill="#7653B5"></rect><rect x="-1" y="3" width="34" height="22" rx="2" fill="#fff"></rect><line x1="16" y1="3" x2="16" y2="25" stroke="#d8cbe8" stroke-width="2"></line></g>
  
  <path d="M64 46 L60 12 L94 42 Z" fill="url(#hdmira)"></path>
  <path d="M136 46 L140 12 L106 42 Z" fill="url(#hdmira)"></path>
  <path d="M69 44 L67 22 L86 42 Z" fill="#F3C6C9"></path>
  <path d="M131 44 L133 22 L114 42 Z" fill="#F3C6C9"></path>
  
  <ellipse cx="100" cy="78" rx="47" ry="44" fill="url(#hdmira)"></ellipse>
  <path d="M100 34 L108 40 q22 6 24 30 q-30 8 -32 -30z" fill="#E8722C"></path><path d="M63 46 L60 12 L94 42 Z" fill="#3a3330"></path>
  
  
  <ellipse cx="100" cy="94" rx="30" ry="22" fill="#FFFFFF"></ellipse>
  
  <ellipse cx="84" cy="74" rx="11" ry="13" fill="#fff"></ellipse>
  <ellipse cx="116" cy="74" rx="11" ry="13" fill="#fff"></ellipse>
  <circle cx="85" cy="76" r="7.5" fill="#F0A21E"></circle><circle cx="115" cy="76" r="7.5" fill="#F0A21E"></circle>
  <circle cx="85" cy="76.5" r="4" fill="#183B4A"></circle><circle cx="115" cy="76.5" r="4" fill="#183B4A"></circle>
  <circle cx="87.5" cy="73.5" r="2.2" fill="#fff"></circle><circle cx="117.5" cy="73.5" r="2.2" fill="#fff"></circle>
  
  <path d="M93 90 L107 90 L100 98 Z" fill="#F08A9B"></path>
  <path d="M100 98 Q100 106 91 105 M100 98 Q100 106 109 105" stroke="#8a5a3a" stroke-width="2.4" fill="none" stroke-linecap="round"></path>
  
  <g stroke="#8a5a3a" stroke-width="2" stroke-linecap="round" opacity=".85"><line x1="72" y1="90" x2="46" y2="86"></line><line x1="72" y1="96" x2="46" y2="98"></line><line x1="128" y1="90" x2="154" y2="86"></line><line x1="128" y1="96" x2="154" y2="98"></line></g>
  
  </svg>