<?xml version="1.0" encoding="UTF-8"?>
<svg xmlns="http://www.w3.org/2000/svg" viewBox="0 0 1200 675" width="1200" height="675">
  <defs>
    <linearGradient id="sky" x1="0" y1="0" x2="0" y2="1">
      <stop offset="0%" stop-color="#87CEEB"/>
      <stop offset="100%" stop-color="#E8F6FF"/>
    </linearGradient>
    <linearGradient id="hill" x1="0" y1="0" x2="0" y2="1">
      <stop offset="0%" stop-color="#7BC67E"/>
      <stop offset="100%" stop-color="#4FA86A"/>
    </linearGradient>
  </defs>
  <rect width="1200" height="675" fill="url(#sky)"/>
  <ellipse cx="200" cy="120" rx="60" ry="35" fill="#fff" opacity="0.85"/>
  <ellipse cx="250" cy="120" rx="45" ry="28" fill="#fff" opacity="0.85"/>
  <ellipse cx="900" cy="90" rx="70" ry="40" fill="#fff" opacity="0.8"/>
  <path d="M0 480 Q300 400 600 460 T1200 430 L1200 675 L0 675 Z" fill="#6BBF6E"/>
  <path d="M0 540 Q400 480 800 530 T1200 500 L1200 675 L0 675 Z" fill="#57A85A"/>
  <!-- schoolhouse -->
  <rect x="480" y="280" width="240" height="180" rx="8" fill="#F5E6C8" stroke="#C4A574" stroke-width="4"/>
  <polygon points="460,280 600,180 740,280" fill="#E67E22" stroke="#8B4513" stroke-width="3"/>
  <rect x="560" y="360" width="80" height="100" fill="#8B5A2B"/>
  <circle cx="625" cy="410" r="6" fill="#FFD700"/>
  <rect x="500" y="320" width="40" height="40" fill="#87CEEB" stroke="#5BA3C9" stroke-width="2"/>
  <rect x="660" y="320" width="40" height="40" fill="#87CEEB" stroke="#5BA3C9" stroke-width="2"/>
  <!-- book -->
  <g transform="translate(180,360)">
    <path d="M0 20 Q40 0 80 20 L80 120 Q40 100 0 120 Z" fill="#FFF8E7" stroke="#8B5A2B" stroke-width="3"/>
    <path d="M80 20 Q120 0 160 20 L160 120 Q120 100 80 120 Z" fill="#FFF8E7" stroke="#8B5A2B" stroke-width="3"/>
    <line x1="80" y1="20" x2="80" y2="120" stroke="#C4A574" stroke-width="2"/>
  </g>
  <!-- cat silhouette (Milo-inspired, original simple) -->
  <g transform="translate(900,380)">
    <ellipse cx="60" cy="90" rx="50" ry="40" fill="#E8A87C"/>
    <circle cx="60" cy="40" r="35" fill="#E8A87C"/>
    <polygon points="30,20 25,0 45,15" fill="#E8A87C"/>
    <polygon points="90,20 95,0 75,15" fill="#E8A87C"/>
    <circle cx="48" cy="38" r="5" fill="#2C3E50"/>
    <circle cx="72" cy="38" r="5" fill="#2C3E50"/>
    <ellipse cx="60" cy="48" rx="4" ry="3" fill="#C45C26"/>
    <path d="M40 55 Q60 65 80 55" fill="none" stroke="#2C3E50" stroke-width="2"/>
    <path d="M20 90 Q0 70 15 50" fill="none" stroke="#E8A87C" stroke-width="10" stroke-linecap="round"/>
  </g>
  <!-- trees -->
  <circle cx="100" cy="420" r="45" fill="#3D8B40"/>
  <rect x="92" y="450" width="16" height="50" fill="#6D4C41"/>
  <circle cx="1100" cy="400" r="50" fill="#3D8B40"/>
  <rect x="1092" y="430" width="16" height="55" fill="#6D4C41"/>
  <!-- title not as instructional text — decorative banner only with abstract shapes -->
  <rect x="350" y="40" width="500" height="50" rx="25" fill="#075F63" opacity="0.85"/>
  <circle cx="380" cy="65" r="12" fill="#F5A623"/>
  <circle cx="820" cy="65" r="12" fill="#F5A623"/>
</svg>
