<svg xmlns="http://www.w3.org/2000/svg" viewBox="0 0 200 200" width="200" height="200">
  <defs><linearGradient id="bdniko" x1="0" y1="0" x2="0" y2="1"><stop offset="0%" stop-color="#A9B4BC"></stop><stop offset="100%" stop-color="#7E8B95"></stop></linearGradient><linearGradient id="hdniko" x1="0" y1="0" x2="0" y2="1"><stop offset="0%" stop-color="#A9B4BC"></stop><stop offset="100%" stop-color="#7E8B95"></stop></linearGradient></defs>
  <ellipse cx="100" cy="186" rx="62" ry="10" fill="#183B4A" opacity=".14"></ellipse>
  
  <path d="M150 168 q40 -6 34 -44 q-3 -24 -22 -22 q16 6 12 26 q-4 26 -30 30 z" fill="url(#bdniko)"></path>
  
  <ellipse cx="100" cy="150" rx="50" ry="44" fill="url(#bdniko)"></ellipse>
  <ellipse cx="100" cy="158" rx="30" ry="30" fill="#E9EDEF"></ellipse>
  
  
  <ellipse cx="80" cy="184" rx="15" ry="11" fill="url(#bdniko)"></ellipse>
  <ellipse cx="120" cy="184" rx="15" ry="11" fill="url(#bdniko)"></ellipse>
  <ellipse cx="80" cy="186" rx="9" ry="6" fill="#E9EDEF"></ellipse>
  <ellipse cx="120" cy="186" rx="9" ry="6" fill="#E9EDEF"></ellipse>
  <path d="M62 130 q38 -16 76 0 l0 40 q-38 12 -76 0 z" fill="#F4F7F1"></path><line x1="100" y1="126" x2="100" y2="170" stroke="#d9e3d2" stroke-width="2"></line><path d="M118 150 l10 0 l0 14 l-10 0z" fill="#66A83E"></path>
  
  <path d="M64 46 L60 12 L94 42 Z" fill="url(#hdniko)"></path>
  <path d="M136 46 L140 12 L106 42 Z" fill="url(#hdniko)"></path>
  <path d="M69 44 L67 22 L86 42 Z" fill="#C9B6C0"></path>
  <path d="M131 44 L133 22 L114 42 Z" fill="#C9B6C0"></path>
  
  <ellipse cx="100" cy="78" rx="47" ry="44" fill="url(#hdniko)"></ellipse>
  
  <g stroke="#6a7680" stroke-width="3" stroke-linecap="round" opacity=".8">
    <line x1="100" y1="34" x2="100" y2="46"></line><line x1="86" y1="37" x2="82" y2="48"></line><line x1="114" y1="37" x2="118" y2="48"></line>
    <line x1="60" y1="150" x2="72" y2="150"></line><line x1="60" y1="162" x2="72" y2="162"></line><line x1="128" y1="150" x2="140" y2="150"></line><line x1="128" y1="162" x2="140" y2="162"></line></g>
  
  <ellipse cx="100" cy="94" rx="30" ry="22" fill="#E9EDEF"></ellipse>
  
  <ellipse cx="84" cy="74" rx="11" ry="13" fill="#fff"></ellipse>
  <ellipse cx="116" cy="74" rx="11" ry="13" fill="#fff"></ellipse>
  <circle cx="85" cy="76" r="7.5" fill="#3C9DDB"></circle><circle cx="115" cy="76" r="7.5" fill="#3C9DDB"></circle>
  <circle cx="85" cy="76.5" r="4" fill="#183B4A"></circle><circle cx="115" cy="76.5" r="4" fill="#183B4A"></circle>
  <circle cx="87.5" cy="73.5" r="2.2" fill="#fff"></circle><circle cx="117.5" cy="73.5" r="2.2" fill="#fff"></circle>
  
  <path d="M93 90 L107 90 L100 98 Z" fill="#F08A9B"></path>
  <path d="M100 98 Q100 106 91 105 M100 98 Q100 106 109 105" stroke="#8a5a3a" stroke-width="2.4" fill="none" stroke-linecap="round"></path>
  
  <g stroke="#8a5a3a" stroke-width="2" stroke-linecap="round" opacity=".85"><line x1="72" y1="90" x2="46" y2="86"></line><line x1="72" y1="96" x2="46" y2="98"></line><line x1="128" y1="90" x2="154" y2="86"></line><line x1="128" y1="96" x2="154" y2="98"></line></g>
  <g><circle cx="84" cy="74" r="15" fill="none" stroke="#66A83E" stroke-width="4"></circle><circle cx="116" cy="74" r="15" fill="none" stroke="#66A83E" stroke-width="4"></circle><line x1="99" y1="74" x2="101" y2="74" stroke="#66A83E" stroke-width="4"></line><circle cx="84" cy="74" r="13" fill="#66A83E" opacity=".12"></circle><circle cx="116" cy="74" r="13" fill="#66A83E" opacity=".12"></circle></g>
  </svg>